<?xml version="1.0" encoding="UTF-8" standalone="no"?>
<!DOCTYPE svg PUBLIC "-//W3C//DTD SVG 1.1//EN" "http://www.w3.org/Graphics/SVG/1.1/DTD/svg11.dtd">
<svg width="100%" height="100%" viewBox="0 0 512 512" version="1.1" xmlns="http://www.w3.org/2000/svg" xmlns:xlink="http://www.w3.org/1999/xlink" xml:space="preserve" xmlns:serif="http://www.serif.com/" style="fill-rule:evenodd;clip-rule:evenodd;stroke-linejoin:round;stroke-miterlimit:2;">
    <g transform="matrix(1,0,0,1,-598,-4220)">
        <g id="Favicon-lowsplit-1" transform="matrix(0.623208,0,0,0.648907,575.38274,1481.408619)">
            <rect x="36.292" y="4220.312" width="821.555" height="789.019" style="fill:none;"/>
            <clipPath id="_clip1">
                <rect x="36.292" y="4220.312" width="821.555" height="789.019"/>
            </clipPath>
            <g clip-path="url(#_clip1)">
                <g transform="matrix(2.551553,0,0,2.402764,-126.592645,-5973.126971)">
                    <rect x="63.837" y="4242.38" width="321.983" height="328.38" style="fill:rgb(11,24,40);"/>
                </g>
                <g id="Favicon-icon" serif:id="Favicon icon" transform="matrix(2.335623,0,0,2.243123,-1991.412578,-2185.696351)">
                    <g transform="matrix(1,0,0,1,-339.210178,2092.34287)">
                        <path d="M1378.764,1003.948C1377.459,1005.504 1375.532,1006.402 1373.501,1006.402C1362.03,1006.402 1323.078,1006.402 1311.607,1006.402C1309.576,1006.402 1307.65,1005.504 1306.344,1003.948C1297.942,993.935 1266.182,956.084 1255.273,943.084C1253.13,940.53 1253.13,936.806 1255.273,934.252C1266.007,921.459 1296.885,884.66 1305.157,874.803C1306.462,873.247 1308.389,872.348 1310.42,872.348C1322.794,872.348 1366.787,872.348 1366.787,872.348L1343.092,900.587L1323.587,900.587C1321.557,900.587 1319.63,901.485 1318.325,903.041C1313.032,909.348 1298.899,926.192 1292.136,934.252C1289.993,936.806 1289.993,940.53 1292.136,943.084C1299.126,951.415 1314.049,969.199 1319.512,975.71C1320.818,977.266 1322.744,978.164 1324.775,978.164L1360.333,978.164C1362.364,978.164 1364.291,977.266 1365.596,975.71C1374.692,964.87 1410.818,921.817 1410.818,921.817L1429.249,943.782C1429.249,943.782 1388.478,992.372 1378.764,1003.948Z" style="fill:rgb(66,253,200);"/>
                    </g>
                    <g transform="matrix(-1,0,0,-1,2427.288598,3971.093756)">
                        <path d="M1378.764,1003.948C1377.459,1005.504 1375.532,1006.402 1373.501,1006.402C1362.03,1006.402 1323.078,1006.402 1311.607,1006.402C1309.576,1006.402 1307.65,1005.504 1306.344,1003.948C1297.942,993.935 1266.182,956.084 1255.273,943.084C1253.13,940.53 1253.13,936.806 1255.273,934.252C1266.007,921.459 1296.885,884.66 1305.157,874.803C1306.462,873.247 1308.389,872.348 1310.42,872.348C1322.794,872.348 1366.787,872.348 1366.787,872.348L1343.092,900.587L1323.587,900.587C1321.557,900.587 1319.63,901.485 1318.325,903.041C1313.032,909.348 1298.899,926.192 1292.136,934.252C1289.993,936.806 1289.993,940.53 1292.136,943.084C1299.126,951.415 1314.049,969.199 1319.512,975.71C1320.818,977.266 1322.744,978.164 1324.775,978.164L1360.333,978.164C1362.364,978.164 1364.291,977.266 1365.596,975.71C1374.692,964.87 1410.818,921.817 1410.818,921.817L1429.249,943.782C1429.249,943.782 1388.478,992.372 1378.764,1003.948Z" style="fill:rgb(66,253,200);"/>
                    </g>
                </g>
            </g>
        </g>
    </g>
</svg>
