<?xml version="1.0" encoding="UTF-8" standalone="no"?>
<!DOCTYPE svg PUBLIC "-//W3C//DTD SVG 1.1//EN" "http://www.w3.org/Graphics/SVG/1.1/DTD/svg11.dtd">
<svg width="100%" height="100%" viewBox="0 0 1068 171" version="1.1" xmlns="http://www.w3.org/2000/svg" xmlns:xlink="http://www.w3.org/1999/xlink" xml:space="preserve" xmlns:serif="http://www.serif.com/" style="fill-rule:evenodd;clip-rule:evenodd;stroke-linejoin:round;stroke-miterlimit:2;">
    <g transform="matrix(1,0,0,1,-7064.784873,-5531.699135)">
        <g id="Logo-lowsplit" serif:id="Logo lowsplit" transform="matrix(1,0,0,1,5813.217383,4659.350704)">
            <path d="M1379.702,1002.83C1377.802,1005.095 1374.998,1006.402 1372.042,1006.402C1359.568,1006.402 1325.54,1006.402 1313.067,1006.402C1310.111,1006.402 1307.306,1005.095 1305.406,1002.83C1296.274,991.947 1268.706,959.093 1256.961,945.096C1253.842,941.378 1253.842,935.957 1256.961,932.24C1268.497,918.492 1295.244,886.616 1304.219,875.921C1306.119,873.656 1308.923,872.348 1311.879,872.348C1325.912,872.348 1366.787,872.348 1366.787,872.348L1343.092,900.587L1325.047,900.587C1322.091,900.587 1319.287,901.895 1317.386,904.159C1311.997,910.582 1300.601,924.163 1293.824,932.24C1290.704,935.957 1290.704,941.378 1293.824,945.096C1300.873,953.497 1312.979,967.923 1318.574,974.592C1320.474,976.856 1323.279,978.164 1326.235,978.164C1334.308,978.164 1350.8,978.164 1358.874,978.164C1361.83,978.164 1364.634,976.856 1366.534,974.592C1376.932,962.2 1410.818,921.817 1410.818,921.817L1429.249,943.782C1429.249,943.782 1390.846,989.55 1379.702,1002.83Z" style="fill:rgb(66,253,200);"/>
            <g transform="matrix(-1,0,0,-1,2766.498775,1878.750886)">
                <path d="M1379.702,1002.83C1377.802,1005.095 1374.998,1006.402 1372.042,1006.402C1359.568,1006.402 1325.54,1006.402 1313.067,1006.402C1310.111,1006.402 1307.306,1005.095 1305.406,1002.83C1296.274,991.947 1268.706,959.093 1256.961,945.096C1253.842,941.378 1253.842,935.957 1256.961,932.24C1268.497,918.492 1295.244,886.616 1304.219,875.921C1306.119,873.656 1308.923,872.348 1311.879,872.348C1325.912,872.348 1366.787,872.348 1366.787,872.348L1343.092,900.587L1325.047,900.587C1322.091,900.587 1319.287,901.895 1317.386,904.159C1311.997,910.582 1300.601,924.163 1293.824,932.24C1290.704,935.957 1290.704,941.378 1293.824,945.096C1300.873,953.497 1312.979,967.923 1318.574,974.592C1320.474,976.856 1323.279,978.164 1326.235,978.164C1334.308,978.164 1350.8,978.164 1358.874,978.164C1361.83,978.164 1364.634,976.856 1366.534,974.592C1376.932,962.2 1410.818,921.817 1410.818,921.817L1429.249,943.782C1429.249,943.782 1390.846,989.55 1379.702,1002.83Z" style="fill:rgb(66,253,200);"/>
            </g>
            <g transform="matrix(1.048542,0,0,1.048542,-113.073049,-42.436428)">
                <rect x="1567.528" y="872.435" width="35.502" height="127.565" style="fill:rgb(11,24,40);fill-rule:nonzero;"/>
                <path d="M1621.304,954.056C1621.304,939.959 1626.06,928.343 1635.574,919.206C1645.088,910.07 1657.937,905.501 1674.122,905.501C1692.627,905.501 1706.608,910.867 1716.063,921.599C1723.663,930.243 1727.462,940.888 1727.462,953.534C1727.462,967.746 1722.749,979.392 1713.322,988.47C1703.896,997.549 1690.858,1002.088 1674.209,1002.088C1659.358,1002.088 1647.35,998.318 1638.185,990.776C1626.931,981.437 1621.304,969.197 1621.304,954.056ZM1656.806,953.969C1656.806,962.206 1658.474,968.297 1661.809,972.242C1665.145,976.187 1669.336,978.159 1674.383,978.159C1679.488,978.159 1683.679,976.216 1686.957,972.329C1690.234,968.442 1691.873,962.206 1691.873,953.621C1691.873,945.615 1690.22,939.655 1686.913,935.739C1683.607,931.823 1679.517,929.866 1674.644,929.866C1669.481,929.866 1665.217,931.852 1661.853,935.826C1658.488,939.8 1656.806,945.847 1656.806,953.969Z" style="fill:rgb(11,24,40);fill-rule:nonzero;"/>
                <path d="M1730.856,907.59L1765.14,907.59L1780.02,965.806L1798.815,907.59L1830.75,907.59L1850.241,965.874L1865.121,907.59L1899.144,907.59L1865.121,1000L1833.621,1000L1814.913,944.397L1796.814,1000L1765.14,1000L1730.856,907.59Z" style="fill:rgb(11,24,40);fill-rule:nonzero;"/>
                <path d="M1903.233,974.33L1938.388,971.024C1939.838,975.201 1941.868,978.188 1944.479,979.986C1947.089,981.785 1950.57,982.684 1954.921,982.684C1959.677,982.684 1963.361,981.67 1965.971,979.642C1968.002,978.137 1969.017,976.255 1969.017,973.996C1969.017,971.447 1967.683,969.478 1965.014,968.087C1963.1,967.103 1958.024,965.886 1949.787,964.438C1937.488,962.294 1928.946,960.31 1924.161,958.484C1919.375,956.659 1915.343,953.573 1912.065,949.227C1908.788,944.88 1907.149,939.925 1907.149,934.362C1907.149,928.276 1908.918,923.031 1912.457,918.627C1915.996,914.223 1920.869,910.934 1927.076,908.762C1933.283,906.588 1941.607,905.501 1952.049,905.501C1963.071,905.501 1971.207,906.342 1976.457,908.025C1981.707,909.707 1986.087,912.317 1989.596,915.856C1993.106,919.395 1996.021,924.181 1998.341,930.214L1964.753,933.52C1963.883,930.562 1962.433,928.386 1960.402,926.994C1957.618,925.138 1954.253,924.21 1950.309,924.21C1946.306,924.21 1943.391,924.919 1941.564,926.339C1939.736,927.757 1938.823,929.48 1938.823,931.508C1938.823,933.767 1939.983,935.475 1942.303,936.634C1944.624,937.792 1949.671,938.835 1957.444,939.762C1969.22,941.095 1977.98,942.949 1983.723,945.326C1989.466,947.701 1993.86,951.091 1996.905,955.496C1999.951,959.9 2001.474,964.739 2001.474,970.012C2001.474,975.344 1999.864,980.531 1996.644,985.573C1993.425,990.615 1988.349,994.628 1981.417,997.613C1974.484,1000.596 1965.043,1002.088 1953.093,1002.088C1936.212,1002.088 1924.19,999.681 1917.025,994.866C1909.861,990.051 1905.264,983.206 1903.233,974.33Z" style="fill:rgb(11,24,40);fill-rule:nonzero;"/>
                <path d="M2018.529,1035.154L2018.529,907.59L2051.682,907.59L2051.682,921.251C2056.264,915.508 2060.47,911.621 2064.299,909.591C2069.462,906.865 2075.176,905.501 2081.441,905.501C2093.797,905.501 2103.354,910.229 2110.112,919.685C2116.871,929.14 2120.25,940.83 2120.25,954.752C2120.25,970.125 2116.566,981.857 2109.199,989.95C2101.832,998.042 2092.521,1002.088 2081.267,1002.088C2075.814,1002.088 2070.84,1001.16 2066.344,999.304C2061.848,997.448 2057.831,994.692 2054.292,991.037L2054.292,1035.154L2018.529,1035.154ZM2054.031,954.056C2054.031,961.365 2055.568,966.789 2058.643,970.328C2061.717,973.866 2065.604,975.636 2070.303,975.636C2074.422,975.636 2077.873,973.939 2080.658,970.545C2083.442,967.152 2084.834,961.394 2084.834,953.273C2084.834,945.789 2083.384,940.293 2080.484,936.783C2077.583,933.274 2074.045,931.519 2069.868,931.519C2065.343,931.519 2061.572,933.288 2058.556,936.827C2055.539,940.365 2054.031,946.108 2054.031,954.056Z" style="fill:rgb(11,24,40);fill-rule:nonzero;"/>
                <rect x="2138.436" y="872.435" width="35.502" height="127.565" style="fill:rgb(11,24,40);fill-rule:nonzero;"/>
                <path d="M2197.867,872.435L2233.283,872.435L2233.283,896.539L2197.867,896.539L2197.867,872.435ZM2197.867,907.59L2233.283,907.59L2233.283,1000L2197.867,1000L2197.867,907.59Z" style="fill:rgb(11,24,40);fill-rule:nonzero;"/>
                <path d="M2298.631,872.435L2298.631,907.59L2318.123,907.59L2318.123,933.52L2298.631,933.52L2298.631,966.26C2298.631,970.196 2299.008,972.801 2299.762,974.075C2300.923,976.044 2302.953,977.028 2305.854,977.028C2308.464,977.028 2312.119,976.275 2316.818,974.77L2319.428,999.217C2310.668,1001.131 2302.489,1002.088 2294.89,1002.088C2286.072,1002.088 2279.575,1000.959 2275.398,998.699C2271.221,996.439 2268.132,993.007 2266.131,988.401C2264.13,983.795 2263.129,976.335 2263.129,966.023L2263.129,933.52L2250.077,933.52L2250.077,907.59L2263.129,907.59L2263.129,890.622L2298.631,872.435Z" style="fill:rgb(11,24,40);fill-rule:nonzero;"/>
            </g>
        </g>
    </g>
</svg>
