<?xml version="1.0" encoding="UTF-8" standalone="no"?>
<!DOCTYPE svg PUBLIC "-//W3C//DTD SVG 1.1//EN" "http://www.w3.org/Graphics/SVG/1.1/DTD/svg11.dtd">
<svg width="100%" height="100%" viewBox="0 0 1068 171" version="1.1" xmlns="http://www.w3.org/2000/svg" xmlns:xlink="http://www.w3.org/1999/xlink" xml:space="preserve" xmlns:serif="http://www.serif.com/" style="fill-rule:evenodd;clip-rule:evenodd;stroke-linejoin:round;stroke-miterlimit:2;">
    <g transform="matrix(1,0,0,1,-964.784873,-914.691301)">
        <g id="Logo-lowsplit" serif:id="Logo lowsplit" transform="matrix(1,0,0,1,-286.782617,42.34287)">
            <path d="M1379.702,1002.83C1377.802,1005.095 1374.998,1006.402 1372.042,1006.402C1359.568,1006.402 1325.54,1006.402 1313.067,1006.402C1310.111,1006.402 1307.306,1005.095 1305.406,1002.83C1296.274,991.947 1268.706,959.093 1256.961,945.096C1253.842,941.378 1253.842,935.957 1256.961,932.24C1268.497,918.492 1295.244,886.616 1304.219,875.921C1306.119,873.656 1308.923,872.348 1311.879,872.348C1325.912,872.348 1366.787,872.348 1366.787,872.348L1343.092,900.587L1325.047,900.587C1322.091,900.587 1319.287,901.895 1317.386,904.159C1311.997,910.582 1300.601,924.163 1293.824,932.24C1290.704,935.957 1290.704,941.378 1293.824,945.096C1300.873,953.497 1312.979,967.923 1318.574,974.592C1320.474,976.856 1323.279,978.164 1326.235,978.164C1334.308,978.164 1350.8,978.164 1358.874,978.164C1361.83,978.164 1364.634,976.856 1366.534,974.592C1376.932,962.2 1410.818,921.817 1410.818,921.817L1429.249,943.782C1429.249,943.782 1390.846,989.55 1379.702,1002.83Z" style="fill:rgb(66,253,200);"/>
            <g transform="matrix(-1,0,0,-1,2766.498775,1878.750886)">
                <path d="M1379.702,1002.83C1377.802,1005.095 1374.998,1006.402 1372.042,1006.402C1359.568,1006.402 1325.54,1006.402 1313.067,1006.402C1310.111,1006.402 1307.306,1005.095 1305.406,1002.83C1296.274,991.947 1268.706,959.093 1256.961,945.096C1253.842,941.378 1253.842,935.957 1256.961,932.24C1268.497,918.492 1295.244,886.616 1304.219,875.921C1306.119,873.656 1308.923,872.348 1311.879,872.348C1325.912,872.348 1366.787,872.348 1366.787,872.348L1343.092,900.587L1325.047,900.587C1322.091,900.587 1319.287,901.895 1317.386,904.159C1311.997,910.582 1300.601,924.163 1293.824,932.24C1290.704,935.957 1290.704,941.378 1293.824,945.096C1300.873,953.497 1312.979,967.923 1318.574,974.592C1320.474,976.856 1323.279,978.164 1326.235,978.164C1334.308,978.164 1350.8,978.164 1358.874,978.164C1361.83,978.164 1364.634,976.856 1366.534,974.592C1376.932,962.2 1410.818,921.817 1410.818,921.817L1429.249,943.782C1429.249,943.782 1390.846,989.55 1379.702,1002.83Z" style="fill:rgb(66,253,200);"/>
            </g>
            <g transform="matrix(1.048542,0,0,1.048542,-113.073049,-42.436428)">
                <g transform="matrix(178.207508,0,0,178.207508,2324.300837,1000)">
                </g>
                <text x="1555.607px" y="1000px" style="font-family:'Arial-Black', 'Arial', sans-serif;font-weight:900;font-size:178.208px;fill:white;">lo<tspan x="1730.595px 1898.796px " y="1000px 1000px ">ws</tspan>plit</text>
            </g>
        </g>
    </g>
</svg>
