<svg width="59" height="59" viewBox="0 0 59 59" fill="none" xmlns="http://www.w3.org/2000/svg">
<path d="M29.5 54.0833C43.077 54.0833 54.0833 43.077 54.0833 29.5C54.0833 15.923 43.077 4.91666 29.5 4.91666C15.923 4.91666 4.91667 15.923 4.91667 29.5C4.91667 43.077 15.923 54.0833 29.5 54.0833Z" fill="#EF534F"/>
<path d="M29.5 19.6667V39.3333M19.6667 29.5H39.3333M54.0833 29.5C54.0833 43.077 43.077 54.0833 29.5 54.0833C15.923 54.0833 4.91667 43.077 4.91667 29.5C4.91667 15.923 15.923 4.91666 29.5 4.91666C43.077 4.91666 54.0833 15.923 54.0833 29.5Z" stroke="#FAFAFA" stroke-width="4" stroke-linecap="round" stroke-linejoin="round"/>
</svg>
