<svg width="300" height="100" viewBox="0 0 300 100" fill="none" xmlns="http://www.w3.org/2000/svg">
<path d="M260.02 62.6339C259.685 62.6339 259.35 62.8565 259.127 63.4129C256.897 69.8678 253.775 73.7629 251.21 73.7629C249.76 73.7629 249.203 72.0936 249.203 69.6452C249.203 63.3016 252.994 49.8355 254.89 43.6032C255.113 42.8242 255.224 42.1565 255.224 41.6C255.224 39.8194 254.221 38.929 251.768 38.929C249.203 38.929 246.303 39.9307 243.627 44.7161C242.735 40.4871 239.836 38.7065 235.821 38.7065C231.249 38.7065 226.789 41.7113 223.109 46.4968C219.429 51.2823 215.08 52.8403 211.846 52.0613C214.188 46.3855 215.08 42.0452 215.08 38.929C215.08 33.921 212.626 30.9161 208.612 30.9161C202.59 30.9161 199.133 36.7032 199.133 42.7129C199.133 47.3871 201.252 52.1726 205.936 54.5097C202.033 63.3016 196.345 71.3145 194.115 71.3145C191.327 71.3145 190.435 57.6258 190.658 47.8323C190.77 42.2678 191.216 41.9339 191.216 40.2645C191.216 39.2629 190.547 38.5952 187.982 38.5952C182.072 38.5952 180.176 43.6032 179.953 49.3903C179.841 51.6161 179.507 53.7307 178.949 55.8452C176.496 64.6371 171.366 71.4258 168.021 71.4258C166.46 71.4258 166.014 69.8678 166.014 67.8645C166.014 61.521 169.582 53.5081 169.582 46.7194C169.582 41.7113 167.352 38.5952 163.226 38.5952C158.319 38.5952 151.963 44.3823 145.83 55.1774C147.837 46.9419 148.618 38.929 142.707 38.929C141.369 38.929 140.143 39.2629 139.028 39.9307C138.247 40.2645 137.801 41.0436 137.801 41.9339C138.358 50.7258 130.664 73.3178 123.416 73.3178C122.077 73.3178 121.408 71.871 121.408 69.5339C121.408 63.1903 125.2 49.7242 127.096 43.4919C127.319 42.7129 127.43 42.0452 127.43 41.3774C127.43 39.7081 126.426 38.8178 123.973 38.8178C121.408 38.8178 118.509 39.8194 115.833 44.6049C114.829 40.3758 112.041 38.5952 108.027 38.5952C101.447 38.5952 94.1991 45.4952 90.9652 54.5097C86.6162 66.5291 78.0297 78.2145 66.3208 78.2145C55.727 78.2145 50.1513 69.4226 50.1513 55.5113C50.1513 35.3678 64.9826 19.0081 75.9109 19.0081C81.1521 19.0081 83.6054 22.3468 83.6054 27.4661C83.6054 33.6984 80.1484 36.4807 80.1484 38.929C80.1484 39.5968 80.706 40.3758 81.9327 40.3758C86.7277 40.3758 92.3034 34.8113 92.3034 27.1323C92.3034 19.4532 86.2817 14 75.3534 14C57.1767 14 39 32.1403 39 55.5113C39 74.0968 48.1441 85.2258 63.979 85.2258C74.7958 85.2258 84.2744 76.8791 89.2925 67.0855C89.8501 75.2097 93.53 79.4387 99.2172 79.4387C104.235 79.4387 108.25 76.4339 111.372 71.2033C112.599 76.6565 115.721 79.3274 119.847 79.3274C124.531 79.3274 128.545 76.3226 132.225 70.8694C132.225 75.2097 133.117 79.3274 136.909 79.3274C138.693 79.3274 140.812 78.8823 141.146 77.3242C145.161 60.9645 154.974 47.4984 157.985 47.4984C158.877 47.4984 159.1 48.3887 159.1 49.3903C159.1 53.842 155.978 62.9678 155.978 68.7549C155.978 75.0984 158.654 79.2162 164.23 79.2162C170.363 79.2162 176.608 71.7597 180.734 60.742C182.072 70.9807 184.86 79.2162 189.209 79.2162C194.561 79.2162 204.263 67.8645 210.062 55.8452C212.292 56.179 215.749 56.0678 219.094 53.7307C217.644 57.292 216.864 61.1871 216.864 64.971C216.864 76.1 222.216 79.2162 226.789 79.2162C231.807 79.2162 235.821 76.2113 238.944 70.9807C239.947 75.6549 242.623 79.1049 247.419 79.1049C254.89 79.1049 261.469 71.4258 261.469 65.0823C261.581 63.7468 260.8 62.6339 260.02 62.6339ZM103.901 73.2065C100.89 73.2065 99.6633 70.2016 99.6633 65.6387C99.6633 57.7371 105.127 44.4936 110.815 44.4936C113.268 44.4936 114.272 47.3871 114.272 51.0597C114.272 59.0726 109.142 73.2065 103.901 73.2065ZM207.943 49.6129C206.159 47.4984 205.489 44.4936 205.489 41.9339C205.489 38.7065 206.716 36.0355 208.054 36.0355C209.392 36.0355 209.95 37.371 209.95 39.3742C209.839 42.4903 208.723 47.2758 207.943 49.6129ZM231.472 73.2065C228.461 73.2065 227.235 69.6452 227.235 65.6387C227.235 57.9597 232.699 44.4936 238.386 44.4936C240.839 44.4936 241.731 47.3871 241.731 51.0597C241.843 59.0726 236.825 73.2065 231.472 73.2065Z" fill="url(#paint0_linear_32_303)"/>
<path d="M260.02 62.6339C259.685 62.6339 259.35 62.8565 259.127 63.4129C256.897 69.8678 253.775 73.7629 251.21 73.7629C249.76 73.7629 249.203 72.0936 249.203 69.6452C249.203 63.3016 252.994 49.8355 254.89 43.6032C255.113 42.8242 255.224 42.1565 255.224 41.6C255.224 39.8194 254.221 38.929 251.768 38.929C249.203 38.929 246.303 39.9307 243.627 44.7161C242.735 40.4871 239.836 38.7065 235.821 38.7065C231.249 38.7065 226.789 41.7113 223.109 46.4968C219.429 51.2823 215.08 52.8403 211.846 52.0613C214.188 46.3855 215.08 42.0452 215.08 38.929C215.08 33.921 212.626 30.9161 208.612 30.9161C202.59 30.9161 199.133 36.7032 199.133 42.7129C199.133 47.3871 201.252 52.1726 205.936 54.5097C202.033 63.3016 196.345 71.3145 194.115 71.3145C191.327 71.3145 190.435 57.6258 190.658 47.8323C190.77 42.2678 191.216 41.9339 191.216 40.2645C191.216 39.2629 190.547 38.5952 187.982 38.5952C182.072 38.5952 180.176 43.6032 179.953 49.3903C179.841 51.6161 179.507 53.7307 178.949 55.8452C176.496 64.6371 171.366 71.4258 168.021 71.4258C166.46 71.4258 166.014 69.8678 166.014 67.8645C166.014 61.521 169.582 53.5081 169.582 46.7194C169.582 41.7113 167.352 38.5952 163.226 38.5952C158.319 38.5952 151.963 44.3823 145.83 55.1774C147.837 46.9419 148.618 38.929 142.707 38.929C141.369 38.929 140.143 39.2629 139.028 39.9307C138.247 40.2645 137.801 41.0436 137.801 41.9339C138.358 50.7258 130.664 73.3178 123.416 73.3178C122.077 73.3178 121.408 71.871 121.408 69.5339C121.408 63.1903 125.2 49.7242 127.096 43.4919C127.319 42.7129 127.43 42.0452 127.43 41.3774C127.43 39.7081 126.426 38.8178 123.973 38.8178C121.408 38.8178 118.509 39.8194 115.833 44.6049C114.829 40.3758 112.041 38.5952 108.027 38.5952C101.447 38.5952 94.1991 45.4952 90.9652 54.5097C86.6162 66.5291 78.0297 78.2145 66.3208 78.2145C55.727 78.2145 50.1513 69.4226 50.1513 55.5113C50.1513 35.3678 64.9826 19.0081 75.9109 19.0081C81.1521 19.0081 83.6054 22.3468 83.6054 27.4661C83.6054 33.6984 80.1484 36.4807 80.1484 38.929C80.1484 39.5968 80.706 40.3758 81.9327 40.3758C86.7277 40.3758 92.3034 34.8113 92.3034 27.1323C92.3034 19.4532 86.2817 14 75.3534 14C57.1767 14 39 32.1403 39 55.5113C39 74.0968 48.1441 85.2258 63.979 85.2258C74.7958 85.2258 84.2744 76.8791 89.2925 67.0855C89.8501 75.2097 93.53 79.4387 99.2172 79.4387C104.235 79.4387 108.25 76.4339 111.372 71.2033C112.599 76.6565 115.721 79.3274 119.847 79.3274C124.531 79.3274 128.545 76.3226 132.225 70.8694C132.225 75.2097 133.117 79.3274 136.909 79.3274C138.693 79.3274 140.812 78.8823 141.146 77.3242C145.161 60.9645 154.974 47.4984 157.985 47.4984C158.877 47.4984 159.1 48.3887 159.1 49.3903C159.1 53.842 155.978 62.9678 155.978 68.7549C155.978 75.0984 158.654 79.2162 164.23 79.2162C170.363 79.2162 176.608 71.7597 180.734 60.742C182.072 70.9807 184.86 79.2162 189.209 79.2162C194.561 79.2162 204.263 67.8645 210.062 55.8452C212.292 56.179 215.749 56.0678 219.094 53.7307C217.644 57.292 216.864 61.1871 216.864 64.971C216.864 76.1 222.216 79.2162 226.789 79.2162C231.807 79.2162 235.821 76.2113 238.944 70.9807C239.947 75.6549 242.623 79.1049 247.419 79.1049C254.89 79.1049 261.469 71.4258 261.469 65.0823C261.581 63.7468 260.8 62.6339 260.02 62.6339ZM103.901 73.2065C100.89 73.2065 99.6633 70.2016 99.6633 65.6387C99.6633 57.7371 105.127 44.4936 110.815 44.4936C113.268 44.4936 114.272 47.3871 114.272 51.0597C114.272 59.0726 109.142 73.2065 103.901 73.2065ZM207.943 49.6129C206.159 47.4984 205.489 44.4936 205.489 41.9339C205.489 38.7065 206.716 36.0355 208.054 36.0355C209.392 36.0355 209.95 37.371 209.95 39.3742C209.839 42.4903 208.723 47.2758 207.943 49.6129ZM231.472 73.2065C228.461 73.2065 227.235 69.6452 227.235 65.6387C227.235 57.9597 232.699 44.4936 238.386 44.4936C240.839 44.4936 241.731 47.3871 241.731 51.0597C241.843 59.0726 236.825 73.2065 231.472 73.2065Z" fill="url(#paint1_radial_32_303)"/>
<path d="M260.02 62.6339C259.685 62.6339 259.35 62.8565 259.127 63.4129C256.897 69.8678 253.775 73.7629 251.21 73.7629C249.76 73.7629 249.203 72.0936 249.203 69.6452C249.203 63.3016 252.994 49.8355 254.89 43.6032C255.113 42.8242 255.224 42.1565 255.224 41.6C255.224 39.8194 254.221 38.929 251.768 38.929C249.203 38.929 246.303 39.9307 243.627 44.7161C242.735 40.4871 239.836 38.7065 235.821 38.7065C231.249 38.7065 226.789 41.7113 223.109 46.4968C219.429 51.2823 215.08 52.8403 211.846 52.0613C214.188 46.3855 215.08 42.0452 215.08 38.929C215.08 33.921 212.626 30.9161 208.612 30.9161C202.59 30.9161 199.133 36.7032 199.133 42.7129C199.133 47.3871 201.252 52.1726 205.936 54.5097C202.033 63.3016 196.345 71.3145 194.115 71.3145C191.327 71.3145 190.435 57.6258 190.658 47.8323C190.77 42.2678 191.216 41.9339 191.216 40.2645C191.216 39.2629 190.547 38.5952 187.982 38.5952C182.072 38.5952 180.176 43.6032 179.953 49.3903C179.841 51.6161 179.507 53.7307 178.949 55.8452C176.496 64.6371 171.366 71.4258 168.021 71.4258C166.46 71.4258 166.014 69.8678 166.014 67.8645C166.014 61.521 169.582 53.5081 169.582 46.7194C169.582 41.7113 167.352 38.5952 163.226 38.5952C158.319 38.5952 151.963 44.3823 145.83 55.1774C147.837 46.9419 148.618 38.929 142.707 38.929C141.369 38.929 140.143 39.2629 139.028 39.9307C138.247 40.2645 137.801 41.0436 137.801 41.9339C138.358 50.7258 130.664 73.3178 123.416 73.3178C122.077 73.3178 121.408 71.871 121.408 69.5339C121.408 63.1903 125.2 49.7242 127.096 43.4919C127.319 42.7129 127.43 42.0452 127.43 41.3774C127.43 39.7081 126.426 38.8178 123.973 38.8178C121.408 38.8178 118.509 39.8194 115.833 44.6049C114.829 40.3758 112.041 38.5952 108.027 38.5952C101.447 38.5952 94.1991 45.4952 90.9652 54.5097C86.6162 66.5291 78.0297 78.2145 66.3208 78.2145C55.727 78.2145 50.1513 69.4226 50.1513 55.5113C50.1513 35.3678 64.9826 19.0081 75.9109 19.0081C81.1521 19.0081 83.6054 22.3468 83.6054 27.4661C83.6054 33.6984 80.1484 36.4807 80.1484 38.929C80.1484 39.5968 80.706 40.3758 81.9327 40.3758C86.7277 40.3758 92.3034 34.8113 92.3034 27.1323C92.3034 19.4532 86.2817 14 75.3534 14C57.1767 14 39 32.1403 39 55.5113C39 74.0968 48.1441 85.2258 63.979 85.2258C74.7958 85.2258 84.2744 76.8791 89.2925 67.0855C89.8501 75.2097 93.53 79.4387 99.2172 79.4387C104.235 79.4387 108.25 76.4339 111.372 71.2033C112.599 76.6565 115.721 79.3274 119.847 79.3274C124.531 79.3274 128.545 76.3226 132.225 70.8694C132.225 75.2097 133.117 79.3274 136.909 79.3274C138.693 79.3274 140.812 78.8823 141.146 77.3242C145.161 60.9645 154.974 47.4984 157.985 47.4984C158.877 47.4984 159.1 48.3887 159.1 49.3903C159.1 53.842 155.978 62.9678 155.978 68.7549C155.978 75.0984 158.654 79.2162 164.23 79.2162C170.363 79.2162 176.608 71.7597 180.734 60.742C182.072 70.9807 184.86 79.2162 189.209 79.2162C194.561 79.2162 204.263 67.8645 210.062 55.8452C212.292 56.179 215.749 56.0678 219.094 53.7307C217.644 57.292 216.864 61.1871 216.864 64.971C216.864 76.1 222.216 79.2162 226.789 79.2162C231.807 79.2162 235.821 76.2113 238.944 70.9807C239.947 75.6549 242.623 79.1049 247.419 79.1049C254.89 79.1049 261.469 71.4258 261.469 65.0823C261.581 63.7468 260.8 62.6339 260.02 62.6339ZM103.901 73.2065C100.89 73.2065 99.6633 70.2016 99.6633 65.6387C99.6633 57.7371 105.127 44.4936 110.815 44.4936C113.268 44.4936 114.272 47.3871 114.272 51.0597C114.272 59.0726 109.142 73.2065 103.901 73.2065ZM207.943 49.6129C206.159 47.4984 205.489 44.4936 205.489 41.9339C205.489 38.7065 206.716 36.0355 208.054 36.0355C209.392 36.0355 209.95 37.371 209.95 39.3742C209.839 42.4903 208.723 47.2758 207.943 49.6129ZM231.472 73.2065C228.461 73.2065 227.235 69.6452 227.235 65.6387C227.235 57.9597 232.699 44.4936 238.386 44.4936C240.839 44.4936 241.731 47.3871 241.731 51.0597C241.843 59.0726 236.825 73.2065 231.472 73.2065Z" fill="url(#paint2_radial_32_303)"/>
<path d="M260.02 62.6339C259.685 62.6339 259.35 62.8565 259.127 63.4129C256.897 69.8678 253.775 73.7629 251.21 73.7629C249.76 73.7629 249.203 72.0936 249.203 69.6452C249.203 63.3016 252.994 49.8355 254.89 43.6032C255.113 42.8242 255.224 42.1565 255.224 41.6C255.224 39.8194 254.221 38.929 251.768 38.929C249.203 38.929 246.303 39.9307 243.627 44.7161C242.735 40.4871 239.836 38.7065 235.821 38.7065C231.249 38.7065 226.789 41.7113 223.109 46.4968C219.429 51.2823 215.08 52.8403 211.846 52.0613C214.188 46.3855 215.08 42.0452 215.08 38.929C215.08 33.921 212.626 30.9161 208.612 30.9161C202.59 30.9161 199.133 36.7032 199.133 42.7129C199.133 47.3871 201.252 52.1726 205.936 54.5097C202.033 63.3016 196.345 71.3145 194.115 71.3145C191.327 71.3145 190.435 57.6258 190.658 47.8323C190.77 42.2678 191.216 41.9339 191.216 40.2645C191.216 39.2629 190.547 38.5952 187.982 38.5952C182.072 38.5952 180.176 43.6032 179.953 49.3903C179.841 51.6161 179.507 53.7307 178.949 55.8452C176.496 64.6371 171.366 71.4258 168.021 71.4258C166.46 71.4258 166.014 69.8678 166.014 67.8645C166.014 61.521 169.582 53.5081 169.582 46.7194C169.582 41.7113 167.352 38.5952 163.226 38.5952C158.319 38.5952 151.963 44.3823 145.83 55.1774C147.837 46.9419 148.618 38.929 142.707 38.929C141.369 38.929 140.143 39.2629 139.028 39.9307C138.247 40.2645 137.801 41.0436 137.801 41.9339C138.358 50.7258 130.664 73.3178 123.416 73.3178C122.077 73.3178 121.408 71.871 121.408 69.5339C121.408 63.1903 125.2 49.7242 127.096 43.4919C127.319 42.7129 127.43 42.0452 127.43 41.3774C127.43 39.7081 126.426 38.8178 123.973 38.8178C121.408 38.8178 118.509 39.8194 115.833 44.6049C114.829 40.3758 112.041 38.5952 108.027 38.5952C101.447 38.5952 94.1991 45.4952 90.9652 54.5097C86.6162 66.5291 78.0297 78.2145 66.3208 78.2145C55.727 78.2145 50.1513 69.4226 50.1513 55.5113C50.1513 35.3678 64.9826 19.0081 75.9109 19.0081C81.1521 19.0081 83.6054 22.3468 83.6054 27.4661C83.6054 33.6984 80.1484 36.4807 80.1484 38.929C80.1484 39.5968 80.706 40.3758 81.9327 40.3758C86.7277 40.3758 92.3034 34.8113 92.3034 27.1323C92.3034 19.4532 86.2817 14 75.3534 14C57.1767 14 39 32.1403 39 55.5113C39 74.0968 48.1441 85.2258 63.979 85.2258C74.7958 85.2258 84.2744 76.8791 89.2925 67.0855C89.8501 75.2097 93.53 79.4387 99.2172 79.4387C104.235 79.4387 108.25 76.4339 111.372 71.2033C112.599 76.6565 115.721 79.3274 119.847 79.3274C124.531 79.3274 128.545 76.3226 132.225 70.8694C132.225 75.2097 133.117 79.3274 136.909 79.3274C138.693 79.3274 140.812 78.8823 141.146 77.3242C145.161 60.9645 154.974 47.4984 157.985 47.4984C158.877 47.4984 159.1 48.3887 159.1 49.3903C159.1 53.842 155.978 62.9678 155.978 68.7549C155.978 75.0984 158.654 79.2162 164.23 79.2162C170.363 79.2162 176.608 71.7597 180.734 60.742C182.072 70.9807 184.86 79.2162 189.209 79.2162C194.561 79.2162 204.263 67.8645 210.062 55.8452C212.292 56.179 215.749 56.0678 219.094 53.7307C217.644 57.292 216.864 61.1871 216.864 64.971C216.864 76.1 222.216 79.2162 226.789 79.2162C231.807 79.2162 235.821 76.2113 238.944 70.9807C239.947 75.6549 242.623 79.1049 247.419 79.1049C254.89 79.1049 261.469 71.4258 261.469 65.0823C261.581 63.7468 260.8 62.6339 260.02 62.6339ZM103.901 73.2065C100.89 73.2065 99.6633 70.2016 99.6633 65.6387C99.6633 57.7371 105.127 44.4936 110.815 44.4936C113.268 44.4936 114.272 47.3871 114.272 51.0597C114.272 59.0726 109.142 73.2065 103.901 73.2065ZM207.943 49.6129C206.159 47.4984 205.489 44.4936 205.489 41.9339C205.489 38.7065 206.716 36.0355 208.054 36.0355C209.392 36.0355 209.95 37.371 209.95 39.3742C209.839 42.4903 208.723 47.2758 207.943 49.6129ZM231.472 73.2065C228.461 73.2065 227.235 69.6452 227.235 65.6387C227.235 57.9597 232.699 44.4936 238.386 44.4936C240.839 44.4936 241.731 47.3871 241.731 51.0597C241.843 59.0726 236.825 73.2065 231.472 73.2065Z" fill="url(#paint3_radial_32_303)"/>
<path d="M260.02 62.6339C259.685 62.6339 259.35 62.8565 259.127 63.4129C256.897 69.8678 253.775 73.7629 251.21 73.7629C249.76 73.7629 249.203 72.0936 249.203 69.6452C249.203 63.3016 252.994 49.8355 254.89 43.6032C255.113 42.8242 255.224 42.1565 255.224 41.6C255.224 39.8194 254.221 38.929 251.768 38.929C249.203 38.929 246.303 39.9307 243.627 44.7161C242.735 40.4871 239.836 38.7065 235.821 38.7065C231.249 38.7065 226.789 41.7113 223.109 46.4968C219.429 51.2823 215.08 52.8403 211.846 52.0613C214.188 46.3855 215.08 42.0452 215.08 38.929C215.08 33.921 212.626 30.9161 208.612 30.9161C202.59 30.9161 199.133 36.7032 199.133 42.7129C199.133 47.3871 201.252 52.1726 205.936 54.5097C202.033 63.3016 196.345 71.3145 194.115 71.3145C191.327 71.3145 190.435 57.6258 190.658 47.8323C190.77 42.2678 191.216 41.9339 191.216 40.2645C191.216 39.2629 190.547 38.5952 187.982 38.5952C182.072 38.5952 180.176 43.6032 179.953 49.3903C179.841 51.6161 179.507 53.7307 178.949 55.8452C176.496 64.6371 171.366 71.4258 168.021 71.4258C166.46 71.4258 166.014 69.8678 166.014 67.8645C166.014 61.521 169.582 53.5081 169.582 46.7194C169.582 41.7113 167.352 38.5952 163.226 38.5952C158.319 38.5952 151.963 44.3823 145.83 55.1774C147.837 46.9419 148.618 38.929 142.707 38.929C141.369 38.929 140.143 39.2629 139.028 39.9307C138.247 40.2645 137.801 41.0436 137.801 41.9339C138.358 50.7258 130.664 73.3178 123.416 73.3178C122.077 73.3178 121.408 71.871 121.408 69.5339C121.408 63.1903 125.2 49.7242 127.096 43.4919C127.319 42.7129 127.43 42.0452 127.43 41.3774C127.43 39.7081 126.426 38.8178 123.973 38.8178C121.408 38.8178 118.509 39.8194 115.833 44.6049C114.829 40.3758 112.041 38.5952 108.027 38.5952C101.447 38.5952 94.1991 45.4952 90.9652 54.5097C86.6162 66.5291 78.0297 78.2145 66.3208 78.2145C55.727 78.2145 50.1513 69.4226 50.1513 55.5113C50.1513 35.3678 64.9826 19.0081 75.9109 19.0081C81.1521 19.0081 83.6054 22.3468 83.6054 27.4661C83.6054 33.6984 80.1484 36.4807 80.1484 38.929C80.1484 39.5968 80.706 40.3758 81.9327 40.3758C86.7277 40.3758 92.3034 34.8113 92.3034 27.1323C92.3034 19.4532 86.2817 14 75.3534 14C57.1767 14 39 32.1403 39 55.5113C39 74.0968 48.1441 85.2258 63.979 85.2258C74.7958 85.2258 84.2744 76.8791 89.2925 67.0855C89.8501 75.2097 93.53 79.4387 99.2172 79.4387C104.235 79.4387 108.25 76.4339 111.372 71.2033C112.599 76.6565 115.721 79.3274 119.847 79.3274C124.531 79.3274 128.545 76.3226 132.225 70.8694C132.225 75.2097 133.117 79.3274 136.909 79.3274C138.693 79.3274 140.812 78.8823 141.146 77.3242C145.161 60.9645 154.974 47.4984 157.985 47.4984C158.877 47.4984 159.1 48.3887 159.1 49.3903C159.1 53.842 155.978 62.9678 155.978 68.7549C155.978 75.0984 158.654 79.2162 164.23 79.2162C170.363 79.2162 176.608 71.7597 180.734 60.742C182.072 70.9807 184.86 79.2162 189.209 79.2162C194.561 79.2162 204.263 67.8645 210.062 55.8452C212.292 56.179 215.749 56.0678 219.094 53.7307C217.644 57.292 216.864 61.1871 216.864 64.971C216.864 76.1 222.216 79.2162 226.789 79.2162C231.807 79.2162 235.821 76.2113 238.944 70.9807C239.947 75.6549 242.623 79.1049 247.419 79.1049C254.89 79.1049 261.469 71.4258 261.469 65.0823C261.581 63.7468 260.8 62.6339 260.02 62.6339ZM103.901 73.2065C100.89 73.2065 99.6633 70.2016 99.6633 65.6387C99.6633 57.7371 105.127 44.4936 110.815 44.4936C113.268 44.4936 114.272 47.3871 114.272 51.0597C114.272 59.0726 109.142 73.2065 103.901 73.2065ZM207.943 49.6129C206.159 47.4984 205.489 44.4936 205.489 41.9339C205.489 38.7065 206.716 36.0355 208.054 36.0355C209.392 36.0355 209.95 37.371 209.95 39.3742C209.839 42.4903 208.723 47.2758 207.943 49.6129ZM231.472 73.2065C228.461 73.2065 227.235 69.6452 227.235 65.6387C227.235 57.9597 232.699 44.4936 238.386 44.4936C240.839 44.4936 241.731 47.3871 241.731 51.0597C241.843 59.0726 236.825 73.2065 231.472 73.2065Z" fill="url(#paint4_radial_32_303)"/>
<path d="M260.02 62.6339C259.685 62.6339 259.35 62.8565 259.127 63.4129C256.897 69.8678 253.775 73.7629 251.21 73.7629C249.76 73.7629 249.203 72.0936 249.203 69.6452C249.203 63.3016 252.994 49.8355 254.89 43.6032C255.113 42.8242 255.224 42.1565 255.224 41.6C255.224 39.8194 254.221 38.929 251.768 38.929C249.203 38.929 246.303 39.9307 243.627 44.7161C242.735 40.4871 239.836 38.7065 235.821 38.7065C231.249 38.7065 226.789 41.7113 223.109 46.4968C219.429 51.2823 215.08 52.8403 211.846 52.0613C214.188 46.3855 215.08 42.0452 215.08 38.929C215.08 33.921 212.626 30.9161 208.612 30.9161C202.59 30.9161 199.133 36.7032 199.133 42.7129C199.133 47.3871 201.252 52.1726 205.936 54.5097C202.033 63.3016 196.345 71.3145 194.115 71.3145C191.327 71.3145 190.435 57.6258 190.658 47.8323C190.77 42.2678 191.216 41.9339 191.216 40.2645C191.216 39.2629 190.547 38.5952 187.982 38.5952C182.072 38.5952 180.176 43.6032 179.953 49.3903C179.841 51.6161 179.507 53.7307 178.949 55.8452C176.496 64.6371 171.366 71.4258 168.021 71.4258C166.46 71.4258 166.014 69.8678 166.014 67.8645C166.014 61.521 169.582 53.5081 169.582 46.7194C169.582 41.7113 167.352 38.5952 163.226 38.5952C158.319 38.5952 151.963 44.3823 145.83 55.1774C147.837 46.9419 148.618 38.929 142.707 38.929C141.369 38.929 140.143 39.2629 139.028 39.9307C138.247 40.2645 137.801 41.0436 137.801 41.9339C138.358 50.7258 130.664 73.3178 123.416 73.3178C122.077 73.3178 121.408 71.871 121.408 69.5339C121.408 63.1903 125.2 49.7242 127.096 43.4919C127.319 42.7129 127.43 42.0452 127.43 41.3774C127.43 39.7081 126.426 38.8178 123.973 38.8178C121.408 38.8178 118.509 39.8194 115.833 44.6049C114.829 40.3758 112.041 38.5952 108.027 38.5952C101.447 38.5952 94.1991 45.4952 90.9652 54.5097C86.6162 66.5291 78.0297 78.2145 66.3208 78.2145C55.727 78.2145 50.1513 69.4226 50.1513 55.5113C50.1513 35.3678 64.9826 19.0081 75.9109 19.0081C81.1521 19.0081 83.6054 22.3468 83.6054 27.4661C83.6054 33.6984 80.1484 36.4807 80.1484 38.929C80.1484 39.5968 80.706 40.3758 81.9327 40.3758C86.7277 40.3758 92.3034 34.8113 92.3034 27.1323C92.3034 19.4532 86.2817 14 75.3534 14C57.1767 14 39 32.1403 39 55.5113C39 74.0968 48.1441 85.2258 63.979 85.2258C74.7958 85.2258 84.2744 76.8791 89.2925 67.0855C89.8501 75.2097 93.53 79.4387 99.2172 79.4387C104.235 79.4387 108.25 76.4339 111.372 71.2033C112.599 76.6565 115.721 79.3274 119.847 79.3274C124.531 79.3274 128.545 76.3226 132.225 70.8694C132.225 75.2097 133.117 79.3274 136.909 79.3274C138.693 79.3274 140.812 78.8823 141.146 77.3242C145.161 60.9645 154.974 47.4984 157.985 47.4984C158.877 47.4984 159.1 48.3887 159.1 49.3903C159.1 53.842 155.978 62.9678 155.978 68.7549C155.978 75.0984 158.654 79.2162 164.23 79.2162C170.363 79.2162 176.608 71.7597 180.734 60.742C182.072 70.9807 184.86 79.2162 189.209 79.2162C194.561 79.2162 204.263 67.8645 210.062 55.8452C212.292 56.179 215.749 56.0678 219.094 53.7307C217.644 57.292 216.864 61.1871 216.864 64.971C216.864 76.1 222.216 79.2162 226.789 79.2162C231.807 79.2162 235.821 76.2113 238.944 70.9807C239.947 75.6549 242.623 79.1049 247.419 79.1049C254.89 79.1049 261.469 71.4258 261.469 65.0823C261.581 63.7468 260.8 62.6339 260.02 62.6339ZM103.901 73.2065C100.89 73.2065 99.6633 70.2016 99.6633 65.6387C99.6633 57.7371 105.127 44.4936 110.815 44.4936C113.268 44.4936 114.272 47.3871 114.272 51.0597C114.272 59.0726 109.142 73.2065 103.901 73.2065ZM207.943 49.6129C206.159 47.4984 205.489 44.4936 205.489 41.9339C205.489 38.7065 206.716 36.0355 208.054 36.0355C209.392 36.0355 209.95 37.371 209.95 39.3742C209.839 42.4903 208.723 47.2758 207.943 49.6129ZM231.472 73.2065C228.461 73.2065 227.235 69.6452 227.235 65.6387C227.235 57.9597 232.699 44.4936 238.386 44.4936C240.839 44.4936 241.731 47.3871 241.731 51.0597C241.843 59.0726 236.825 73.2065 231.472 73.2065Z" fill="url(#paint5_radial_32_303)"/>
<defs>
<linearGradient id="paint0_linear_32_303" x1="259.118" y1="86.456" x2="74.0042" y2="42.3143" gradientUnits="userSpaceOnUse">
<stop stop-color="#7D2AE7"/>
<stop offset="0.7708" stop-color="#7D2AE7"/>
<stop offset="1" stop-color="#7D2AE7" stop-opacity="0"/>
</linearGradient>
<radialGradient id="paint1_radial_32_303" cx="0" cy="0" r="1" gradientTransform="matrix(46.7334 -47.9725 -31.9457 -30.9962 152.947 92.9504)" gradientUnits="userSpaceOnUse">
<stop stop-color="#6420FF"/>
<stop offset="1" stop-color="#6420FF" stop-opacity="0"/>
</radialGradient>
<radialGradient id="paint2_radial_32_303" cx="0" cy="0" r="1" gradientTransform="matrix(129.963 11.5489 9.22319 -103.376 44.3266 61.4368)" gradientUnits="userSpaceOnUse">
<stop offset="0.25" stop-color="#00C4CC"/>
<stop offset="1" stop-color="#00C4CC" stop-opacity="0"/>
</radialGradient>
<radialGradient id="paint3_radial_32_303" cx="0" cy="0" r="1" gradientTransform="matrix(65.4824 -52.6365 -36.0634 -44.6853 133.986 85.1727)" gradientUnits="userSpaceOnUse">
<stop stop-color="#6420FF"/>
<stop offset="1" stop-color="#6420FF" stop-opacity="0"/>
</radialGradient>
<radialGradient id="paint4_radial_32_303" cx="0" cy="0" r="1" gradientTransform="matrix(81.0046 -55.0795 -37.7371 -55.2776 51.4684 97.6029)" gradientUnits="userSpaceOnUse">
<stop stop-color="#6420FF"/>
<stop offset="1" stop-color="#6420FF" stop-opacity="0"/>
</radialGradient>
<radialGradient id="paint5_radial_32_303" cx="0" cy="0" r="1" gradientTransform="matrix(189.158 41.7537 51.312 -231.532 60.4156 20.5265)" gradientUnits="userSpaceOnUse">
<stop stop-color="#00C4CC"/>
<stop offset="1" stop-color="#00C4CC" stop-opacity="0"/>
</radialGradient>
</defs>
</svg>
