<svg width="300" height="100" viewBox="0 0 300 100" fill="none" xmlns="http://www.w3.org/2000/svg">
<rect width="300" height="100" fill="white"/>
<g clip-path="url(#clip0_16_206)">
<path d="M274.186 63.7084V34.2815H279.321V63.7511H274.186V63.7084Z" fill="#F47521"/>
<path d="M263.109 63.7084V34.2815H268.244V63.7511H263.109V63.7084Z" fill="#F47521"/>
<path d="M258.78 53.101C258.78 60.2011 255.258 64.0077 248.765 64.0077C242.272 64.0077 238.749 60.2011 238.749 53.101C238.749 46.0009 242.272 42.1942 248.765 42.1942C255.258 42.1942 258.78 46.0009 258.78 53.101ZM253.9 53.101C253.9 47.3696 251.99 46.3003 249.02 46.3003C246.049 46.3003 244.139 47.3696 244.139 53.101C244.139 58.8324 246.049 59.9017 249.02 59.9017C251.736 59.9017 253.9 58.8324 253.9 53.101Z" fill="#F47521"/>
<path d="M236.585 42.1941V46.5568C233.869 46.5568 230.643 46.5568 230.643 47.9255V63.751H225.508V44.9315C225.763 41.6381 236.585 42.1941 236.585 42.1941Z" fill="#F47521"/>
<path d="M205.732 72.1771C209.551 62.639 209.254 63.4517 209.551 62.639L201.955 42.4508H207.387L212.267 57.1642L216.851 42.4508H222.283L214.177 64.2643L211.206 72.1771H205.732Z" fill="#F47521"/>
<path d="M198.984 50.9196V63.7511H193.849V50.6202C193.849 48.6955 193.297 46.8136 188.714 46.8136C187.525 46.8563 186.337 47.0274 185.191 47.3696V63.7511H180.056V34.2815H185.191V42.7503C186.549 42.1515 188.035 41.8948 189.52 41.9376C195.716 42.1942 198.984 45.4449 198.984 50.9196Z" fill="#F47521"/>
<path d="M170.592 59.645C172.46 59.5594 174.284 59.2173 176.024 58.5329V62.8956C174.03 63.7083 171.95 64.0505 169.786 63.9649C163.293 63.9649 159.77 60.1582 159.77 53.0582C159.77 45.9581 163.293 41.8948 169.786 41.8948C171.908 41.9803 173.987 42.3225 176.024 43.0068V47.3695C174.284 46.6852 172.46 46.343 170.592 46.3002C167.07 46.3002 164.905 47.3695 164.905 52.8443C164.905 58.5329 167.07 59.645 170.592 59.645Z" fill="#F47521"/>
<path d="M156.502 50.3636V63.7083H151.622V50.3636C151.622 48.4388 151.622 46.5569 147.293 46.5569C145.935 46.5569 143.219 46.8135 143.219 47.6262V63.7083H138.339V46.0008C138.339 42.4508 142.667 41.8948 148.057 41.8948C153.532 42.1942 156.502 44.3755 156.502 50.3636Z" fill="#F47521"/>
<path d="M133.5 42.4508V54.1702C133.5 60.4576 131.336 64.2643 124.037 64.2643C116.737 64.2643 114.827 60.4576 114.827 54.1702V42.4508H119.708V54.7263C119.708 58.2763 121.066 59.3456 124.037 59.3456C127.007 59.3456 128.365 58.2763 128.365 54.7263V42.4508H133.5Z" fill="#F47521"/>
<path d="M110.796 42.1941V46.5568C108.079 46.5568 104.854 46.5568 104.854 47.9255V63.751H99.719V44.9315C99.9736 41.6381 110.796 42.1941 110.796 42.1941Z" fill="#F47521"/>
<path d="M89.661 59.645C91.4435 59.6022 93.1835 59.2173 94.7961 58.5329V62.8956C92.8015 63.7083 90.722 64.0505 88.5576 63.9649C82.0644 63.9649 78.542 60.1582 78.542 53.0582C78.542 45.9581 82.0644 41.8948 88.5576 41.8948C90.6795 41.9803 92.7591 42.3225 94.7961 43.0068V47.3695C93.141 46.728 91.401 46.343 89.661 46.3002C86.1386 46.3002 83.9742 47.3695 83.9742 52.8443C83.7196 58.5329 86.181 59.645 89.661 59.645Z" fill="#F47521"/>
<path d="M25.578 53.101C25.578 41.1677 35.1692 31.5441 47.0097 31.5441C58.1712 31.5869 67.4229 40.2267 68.3141 51.4329V50.0642C68.3141 36.5056 57.4073 25.5133 43.9541 25.5133C30.5009 25.5133 19.5941 36.5484 19.5941 50.107C19.5941 63.6656 30.5009 74.6151 43.9541 74.6151H45.5668C34.3629 73.8452 25.6205 64.4355 25.578 53.101Z" fill="#F47521"/>
<path d="M58.5532 54.1702C54.2244 54.1702 50.7444 50.6629 50.702 46.343C50.702 43.0068 52.7391 40.0556 55.8371 38.9007C53.4181 37.6176 50.7444 36.9332 47.9859 36.976C38.5644 36.976 30.9254 44.6749 30.9254 54.1702C30.9254 63.6655 38.5644 71.3644 47.9859 71.3644C57.4074 71.3644 65.0464 63.6655 65.0464 54.1702C65.0888 53.0581 65.004 51.9888 64.7918 50.8768C63.4762 53.0581 61.0571 54.2985 58.5532 54.1702Z" fill="#F47521"/>
</g>
<defs>
<clipPath id="clip0_16_206">
<rect width="261" height="50" fill="white" transform="translate(19 25)"/>
</clipPath>
</defs>
</svg>
