<svg width="300" height="100" viewBox="0 0 300 100" fill="none" xmlns="http://www.w3.org/2000/svg">
<rect width="300" height="100" fill="white"/>
<path d="M181.108 62.581C179.042 63.0681 173.604 63.3486 173.604 63.3486L172.915 65.5628C172.915 65.5628 175.627 65.3266 177.607 65.5333C177.607 65.5333 178.253 65.4595 178.324 66.2861C178.353 67.0537 178.267 67.8804 178.267 67.8804C178.267 67.8804 178.224 68.3823 177.535 68.5004C176.789 68.6332 171.681 68.8251 171.681 68.8251L170.849 71.7036C170.849 71.7036 170.548 72.3679 171.236 72.176C171.882 71.9989 177.234 70.9655 177.937 71.1132C178.683 71.3051 179.515 72.3236 179.271 73.2684C178.984 74.4198 173.647 77.933 170.39 77.6821C170.39 77.6821 168.682 77.8002 167.233 75.4236C165.884 73.165 167.75 68.8694 167.75 68.8694C167.75 68.8694 166.903 66.8618 167.52 66.1975C167.52 66.1975 167.893 65.858 168.955 65.7695L170.261 62.9795C170.261 62.9795 168.768 63.0828 167.879 61.961C167.047 60.8834 166.989 60.3962 167.621 60.101C168.295 59.7615 174.508 58.5953 178.784 58.7429C178.784 58.7429 180.276 58.5953 181.553 61.2524C181.538 61.2524 182.17 62.33 181.108 62.581ZM165.024 73.2979C164.478 74.6264 163.029 76.0435 161.236 75.1578C159.456 74.2721 156.63 68.3232 156.63 68.3232C156.63 68.3232 155.554 66.109 155.353 66.1533C155.353 66.1533 155.123 65.7252 154.98 68.1461C154.836 70.567 155.008 75.2759 154.076 76.014C153.186 76.7521 152.11 76.4569 151.55 75.5859C151.048 74.7298 150.833 72.6927 151.106 69.1203C151.436 65.548 152.239 61.7395 153.272 60.5438C154.305 59.3629 155.138 60.2191 155.453 60.5291C155.453 60.5291 156.831 61.8133 159.112 65.5923L159.514 66.2861C159.514 66.2861 161.58 69.8584 161.795 69.8437C161.795 69.8437 161.967 70.006 162.111 69.8879C162.326 69.8289 162.24 68.6775 162.24 68.6775C162.24 68.6775 161.809 64.7952 159.93 58.2115C159.93 58.2115 159.643 57.3849 159.844 56.6173C160.03 55.8349 160.791 56.2039 160.791 56.2039C160.791 56.2039 163.718 57.7096 165.124 62.6105C166.516 67.5556 165.569 71.9693 165.024 73.2979ZM150.647 60.7062C150.403 61.2081 150.259 61.9314 149.025 62.1233C149.025 62.1233 137.217 62.95 136.657 63.8062C136.657 63.8062 136.241 64.3081 136.887 64.4557C137.532 64.5885 140.201 64.9576 141.492 65.0314C142.87 65.0461 147.519 65.0904 149.183 67.2309C149.183 67.2309 150.173 68.2494 150.13 70.5522C150.087 72.9141 149.685 73.7407 148.796 74.5969C147.863 75.394 139.857 79.0844 134.691 73.416C134.691 73.416 132.309 70.6851 135.509 68.6185C135.509 68.6185 137.819 67.1866 143.688 68.8694C143.688 68.8694 145.467 69.5337 145.381 70.1979C145.28 70.9065 143.917 71.6593 141.937 71.6151C140.014 71.556 138.608 70.6113 138.881 70.7589C139.139 70.8622 136.815 69.6075 136.097 70.4637C135.38 71.246 135.552 71.7331 136.255 72.2203C138.049 73.2684 144.979 72.8993 147.045 70.5375C147.045 70.5375 147.863 69.578 146.615 68.7956C145.366 68.0575 141.794 67.6147 140.402 67.5409C139.067 67.467 134.103 67.5556 133.386 66.1975C133.386 66.1975 132.668 65.2823 133.457 62.6843C134.289 59.9681 140.072 58.9201 142.568 58.6839C142.568 58.6839 149.441 58.4329 150.704 59.8796C150.69 59.8796 150.862 60.2191 150.647 60.7062ZM131.133 76.634C130.301 77.2688 128.536 76.9883 128.034 76.2797C127.531 75.645 127.359 73.1207 127.46 69.1646C127.56 65.1642 127.646 60.2043 128.478 59.422C129.368 58.6248 129.913 59.3186 130.258 59.8648C130.631 60.3962 131.075 60.9867 131.176 62.2414C131.262 63.4962 131.549 70.0798 131.549 70.0798C131.549 70.0798 131.922 76.014 131.133 76.634ZM132.926 55.4068C130.502 56.2335 128.837 55.953 127.431 55.333C126.814 56.4401 126.455 56.7796 125.982 56.8534C125.293 56.9273 124.676 55.7906 124.561 55.4216C124.447 55.1411 124.117 54.6687 124.518 53.5468C123.141 52.2773 123.04 50.565 123.27 49.4136C123.614 48.0851 125.939 43.0366 133.012 42.4461C133.012 42.4461 136.47 42.1804 137.059 44.0847H137.159C137.159 44.0847 140.517 44.0994 140.445 47.1698C140.402 50.255 136.714 54.093 132.926 55.4068ZM126.326 48.5722C125.609 49.7531 125.58 50.4617 125.91 50.9488C126.728 49.6645 128.22 47.6422 130.415 46.107C128.722 46.2546 127.302 47.0075 126.326 48.5722ZM136.097 46.5941C133.873 46.9336 130.43 50.0041 128.794 52.5135C131.305 52.9859 135.739 52.8088 137.704 48.6903C137.69 48.6903 138.637 46.1365 136.097 46.5941ZM196.475 70.3751C195.141 72.7665 191.396 77.7559 186.402 76.5897C184.752 80.7082 183.375 84.8562 182.586 91.0856C182.586 91.0856 182.414 92.2961 181.438 91.868C180.477 91.5137 178.87 89.8604 178.554 87.5724C178.21 84.561 179.515 79.4682 182.17 73.6374C181.395 72.3384 180.864 70.4784 181.323 67.8361C181.323 67.8361 181.998 62.9352 186.776 58.5067C186.776 58.5067 187.349 57.9901 187.679 58.1525C188.052 58.3148 187.88 59.9091 187.579 60.6767C187.278 61.4443 185.14 65.2528 185.14 65.2528C185.14 65.2528 183.805 67.8213 184.178 69.8437C186.689 65.8728 192.4 57.8572 195.944 60.3815C197.135 61.2524 197.68 63.1567 197.68 65.2085C197.666 67.0242 197.25 68.9432 196.475 70.3751ZM195.442 64.0866C195.442 64.0866 195.241 62.5071 193.749 64.249C192.457 65.7104 190.133 68.4708 188.253 72.2055C190.219 71.9841 192.113 70.877 192.687 70.316C193.62 69.4599 195.786 67.157 195.442 64.0866ZM125.781 66.0942C125.508 69.6665 124.174 75.6745 114.718 78.6416C108.477 80.5754 102.58 79.6454 99.3658 78.804C99.294 80.1177 99.1505 80.6787 98.9497 80.9001C98.677 81.1806 96.6396 82.391 95.5204 80.6787C95.0182 79.8668 94.76 78.3906 94.6165 77.0769C87.3849 73.6522 84.0561 68.7218 83.927 68.5004C83.7692 68.338 82.1191 66.5666 83.7692 64.3966C85.3188 62.4333 90.3837 60.47 94.9465 59.6729C95.1043 55.6578 95.5635 52.6316 96.1087 51.244C96.7687 49.635 97.6009 51.0817 98.3183 52.174C98.921 52.9859 99.2797 56.4844 99.3084 59.2743C102.293 59.1267 104.058 59.3482 107.386 59.9681C111.72 60.78 114.618 63.0533 114.36 65.6366C114.173 68.1756 111.906 69.2237 111.045 69.2975C110.141 69.3713 108.735 68.707 108.735 68.707C107.774 68.2346 108.663 67.8213 109.826 67.3047C111.088 66.6699 110.801 66.0204 110.801 66.0204C110.328 64.6033 104.703 63.6143 99.1075 63.6143C99.0788 66.788 99.2366 72.0579 99.3084 75.1283C103.225 75.8959 106.152 75.7483 106.152 75.7483C106.152 75.7483 120.443 75.335 120.874 65.9466C121.319 56.5435 106.626 47.5241 95.7643 44.6604C84.917 41.7376 78.776 43.7747 78.2451 44.0551C77.6712 44.3504 78.202 44.4389 78.202 44.4389C78.202 44.4389 78.7903 44.5275 79.809 44.8818C80.8852 45.2361 80.053 45.8118 80.053 45.8118C78.202 46.417 76.1215 46.0332 75.7198 45.1623C75.318 44.2913 75.9924 43.509 76.7672 42.3871C77.542 41.2061 78.3886 41.2504 78.3886 41.2504C91.8042 36.4677 108.147 45.118 108.147 45.118C123.457 53.104 126.068 62.4629 125.781 66.0942ZM85.2901 65.6071C83.7692 66.3747 84.8166 67.4818 84.8166 67.4818C87.6719 70.6408 91.1872 72.6188 94.5304 73.8441C94.9178 68.397 94.8604 66.478 94.9034 63.7324C89.6807 64.1014 86.6675 64.9576 85.2901 65.6071Z" fill="#01147C"/>
<path d="M224.885 64.4851V66.4337C224.885 66.8618 224.555 67.2013 224.139 67.2013H215.113C215.113 67.6884 215.128 68.1165 215.128 68.5151C215.128 71.3936 215.013 73.7407 214.74 76.383C214.697 76.7816 214.382 77.0768 214.009 77.0768H212.057C211.856 77.0768 211.67 76.9882 211.541 76.8406C211.412 76.693 211.34 76.4863 211.369 76.2797C211.641 73.6521 211.77 71.3345 211.77 68.5151C211.77 68.1017 211.77 67.6737 211.756 67.2013H202.831C202.415 67.2013 202.085 66.8618 202.085 66.4337V64.4851C202.085 64.0571 202.415 63.7175 202.831 63.7175H211.627C211.44 60.5438 211.067 57.4881 210.465 54.3882C210.436 54.1963 210.479 54.0044 210.594 53.8568C210.709 53.7092 210.881 53.6206 211.067 53.6206H213.176C213.506 53.6206 213.779 53.8568 213.851 54.1963C214.439 57.3996 214.812 60.5143 214.999 63.7175H224.139C224.54 63.7175 224.885 64.0718 224.885 64.4851Z" fill="#01147C"/>
<path d="M212.602 49.0299C207.939 37.2353 200.062 27.1827 189.817 19.9495C179.329 12.5539 167.032 8.64209 154.262 8.64209C133.142 8.64209 113.542 19.4328 101.848 37.5158C101.719 37.7077 101.69 37.9586 101.762 38.1801C101.834 38.4163 102.006 38.5786 102.221 38.6524L103.857 39.2281C103.957 39.2577 104.058 39.2724 104.144 39.2724C104.445 39.2724 104.732 39.1101 104.904 38.8591C110.27 30.7402 117.531 23.9942 125.91 19.3295C134.562 14.5172 144.362 11.9635 154.248 11.9635C166.2 11.9635 177.722 15.5948 187.593 22.4442C197.221 29.1312 204.697 38.4753 209.216 49.4432C209.345 49.7679 209.661 49.9894 210.005 49.9894H211.957C212.186 49.9894 212.402 49.8713 212.516 49.6794C212.66 49.4875 212.689 49.2513 212.602 49.0299ZM104.144 38.7705H104.172C104.172 38.7705 104.158 38.7705 104.144 38.7705ZM209.604 49.7236C209.647 49.7532 209.69 49.7827 209.733 49.7975C209.69 49.7679 209.647 49.7532 209.604 49.7236Z" fill="url(#paint0_radial_34_216)"/>
<defs>
<radialGradient id="paint0_radial_34_216" cx="0" cy="0" r="1" gradientUnits="userSpaceOnUse" gradientTransform="translate(210.769 49.915) scale(109.065 112.207)">
<stop offset="0.007" stop-color="#021192"/>
<stop offset="0.03" stop-color="#021096"/>
<stop offset="0.057" stop-color="#010CB4"/>
<stop offset="0.084" stop-color="#0008CE"/>
<stop offset="0.111" stop-color="#0006D7"/>
<stop offset="0.138" stop-color="#0004E1"/>
<stop offset="0.165" stop-color="#0001FA"/>
<stop offset="0.191" stop-color="#0000FE"/>
<stop offset="0.216" stop-color="#0F1EFF"/>
<stop offset="1" stop-color="#00FFFF" stop-opacity="0"/>
</radialGradient>
</defs>
</svg>
