<svg width="300" height="100" viewBox="0 0 300 100" fill="none" xmlns="http://www.w3.org/2000/svg">
<g clip-path="url(#clip0_34_173)">
<path d="M239.637 50.2874C239.637 41.3411 246.482 35.0361 255.551 35.0361C264.619 35.0361 271.464 41.3411 271.464 50.2874C271.464 59.0634 264.619 65.5388 255.551 65.5388C246.482 65.5388 239.637 59.1486 239.637 50.2874ZM262.481 50.2874C262.481 46.1125 259.828 43.0452 255.636 43.0452C251.444 43.0452 248.792 46.1125 248.792 50.2874C248.792 54.4624 251.444 57.5297 255.636 57.5297C259.828 57.5297 262.481 54.5476 262.481 50.2874ZM233.648 43.2156C234.247 44.4084 234.504 45.6865 234.504 47.0497C234.504 50.2874 232.793 53.2696 230.055 55.57C233.819 57.3593 236.044 61.7047 236.044 65.7944C236.044 73.4627 229.798 78.5749 220.302 78.5749C210.805 78.5749 204.56 73.5479 204.56 65.7944C204.56 61.6195 206.784 57.4445 210.548 55.57C207.725 53.2696 206.1 50.2874 206.1 47.0497C206.1 40.3187 211.404 35.3769 219.788 35.3769C224.751 35.3769 226.205 36.2289 229.028 36.2289C230.911 36.2289 232.194 35.9733 234.504 34.7805C235.274 34.3545 235.873 34.1841 236.386 34.1841C237.498 34.1841 238.097 35.2917 238.097 36.6549C238.183 39.6371 236.814 42.1079 233.648 43.2156ZM227.232 65.5388C227.232 62.1307 224.58 59.745 220.387 59.745C216.195 59.745 213.543 62.0455 213.543 65.5388C213.543 68.7765 216.452 71.3326 220.387 71.3326C224.237 71.3326 227.232 68.7765 227.232 65.5388ZM214.826 47.5609C214.826 50.4579 217.307 52.7583 220.302 52.7583C223.382 52.7583 225.777 50.4579 225.777 47.5609C225.777 44.4936 223.553 42.3636 220.302 42.3636C217.136 42.3636 214.826 44.4084 214.826 47.5609ZM200.453 50.8839V61.5343C200.453 63.5791 199.683 64.4312 197.458 64.4312H194.464C192.24 64.4312 191.47 63.5791 191.47 61.5343V51.1395C191.47 48.4982 191.042 46.6237 190.101 45.4309C189.074 44.1528 187.534 43.4712 185.566 43.4712C183.684 43.4712 181.973 44.1528 180.861 45.4309C179.834 46.6237 179.15 48.4982 179.15 51.0543V61.4491C179.15 63.5791 178.294 64.346 176.155 64.346H173.161C171.107 64.346 170.166 63.5791 170.166 61.4491V37.5922C170.166 36.2289 170.851 35.6325 171.877 35.6325C173.417 35.6325 175.556 36.9106 177.182 39.3814C179.577 36.5697 183.256 35.1213 186.85 35.1213C191.213 35.1213 194.721 36.6549 197.031 39.211C199.341 41.8523 200.453 45.2605 200.453 50.8839ZM153.74 26.8566C153.74 24.1301 155.964 22 158.873 22C161.611 22 164.006 24.1301 164.006 26.8566C164.006 29.4979 161.611 31.7132 158.873 31.7132C155.964 31.7132 153.74 29.4979 153.74 26.8566ZM154.339 61.5343V39.1258C154.339 37.081 155.109 36.2289 157.333 36.2289H160.327C162.552 36.2289 163.322 37.081 163.322 39.1258V61.5343C163.322 63.5791 162.552 64.4312 160.327 64.4312H157.333C155.109 64.4312 154.339 63.5791 154.339 61.5343ZM138.511 61.5343V33.4172C138.511 26.3454 142.532 22.3408 145.783 22.3408C146.81 22.3408 147.494 23.0224 147.494 24.3005V61.4491C147.494 63.5791 146.639 64.346 144.5 64.346H141.505C139.452 64.4312 138.511 63.6643 138.511 61.5343ZM101.551 50.2874C101.551 41.3411 108.395 35.0361 117.464 35.0361C126.533 35.0361 133.378 41.3411 133.378 50.2874C133.378 59.0634 126.533 65.5388 117.464 65.5388C108.395 65.5388 101.551 59.1486 101.551 50.2874ZM124.309 50.2874C124.309 46.1125 121.656 43.0452 117.464 43.0452C113.272 43.0452 110.62 46.1125 110.62 50.2874C110.62 54.4624 113.272 57.5297 117.464 57.5297C121.656 57.5297 124.309 54.5476 124.309 50.2874ZM96.9309 39.1258V62.9827C96.9309 64.346 96.2465 64.9424 95.2198 64.9424C93.6798 64.9424 91.541 63.6643 90.001 61.2787C87.7765 63.92 84.3543 65.4536 80.5043 65.4536C76.6543 65.4536 73.5743 64.0904 71.2643 62.0455C68.6121 59.4894 67.1577 55.57 67.1577 49.9466V39.1258C67.1577 37.081 67.9277 36.2289 70.1521 36.2289H73.1466C75.371 36.2289 76.141 37.081 76.141 39.1258V49.1798C76.141 52.5879 76.7399 54.3772 77.8521 55.57C78.7932 56.5925 80.1621 57.1037 81.8732 57.1037C83.5843 57.1037 85.2099 56.4221 86.151 55.3144C87.2632 54.1216 87.8621 52.2471 87.8621 49.3502V39.1258C87.8621 36.9958 88.7176 36.2289 90.8565 36.2289H93.851C95.9898 36.1437 96.9309 36.9958 96.9309 39.1258ZM60.9977 24.3005V62.9827C60.9977 64.346 60.3133 64.9424 59.2866 64.9424C57.7466 64.9424 55.6077 63.6643 54.0677 61.3639C52.1855 63.5791 48.3355 65.5388 43.8866 65.5388C34.9889 65.5388 29 59.0634 29 50.2874C29 41.6819 35.0744 35.0361 43.8866 35.0361C47.1377 35.0361 49.9611 36.0585 52.0999 37.507V33.4172C52.0999 26.3454 56.121 22.3408 59.3721 22.3408C60.3988 22.3408 60.9977 23.0224 60.9977 24.3005ZM52.0999 50.2874C52.0999 45.9421 49.02 43.0452 45.17 43.0452C41.2344 43.0452 38.1544 45.9421 38.1544 50.2874C38.1544 54.6328 41.2344 57.5297 45.17 57.5297C49.02 57.5297 52.0999 54.718 52.0999 50.2874Z" fill="#58CC02"/>
</g>
<defs>
<clipPath id="clip0_34_173">
<rect width="242.464" height="56.5749" fill="white" transform="translate(29 22)"/>
</clipPath>
</defs>
</svg>
