<svg width="300" height="100" viewBox="0 0 300 100" fill="none" xmlns="http://www.w3.org/2000/svg">
<g clip-path="url(#clip0_34_181)">
<path fill-rule="evenodd" clip-rule="evenodd" d="M53.7875 70.832H42.6434V54.872H35.4374V70.832H24V29.672H35.4374V45.002H42.6434V29.672H53.7875V70.832ZM104.9 71C116.337 71 125.638 61.466 125.638 49.874C125.638 38.114 116.295 29 104.9 29C93.3367 29 87.4713 37.442 86.0888 40.844C86.0888 35.762 81.0195 29.672 75.1122 29.672H56.0918V70.79H73.8135C81.0195 70.79 86.0888 64.616 86.0888 59.198C87.6808 62.558 93.3367 71 104.9 71ZM72.389 54.284C74.0229 54.284 75.3636 55.88 75.3636 57.728C75.3636 59.66 74.0229 61.256 72.389 61.256H66.7332V54.284H72.389ZM72.389 38.87C74.0229 38.87 75.3636 40.466 75.3636 42.314C75.3636 44.162 74.0229 45.758 72.389 45.758H66.7332V38.87H72.389ZM79.8883 49.874C81.2289 49.79 83.3656 48.278 84.1616 47.354C83.8264 48.446 83.8264 51.932 84.1616 53.024C83.2399 51.722 81.187 50.126 79.8883 49.874ZM94.5097 49.874C94.5097 44.078 99.202 39.374 104.984 39.416C110.723 39.458 115.332 44.162 115.332 49.916C115.332 49.958 115.332 50 115.332 50.042C115.248 55.796 110.639 60.374 104.9 60.374C99.1601 60.374 94.5097 55.712 94.5097 49.874ZM104.9 58.148C109.341 58.148 113.069 54.494 113.069 49.916C113.069 45.338 109.341 41.726 104.9 41.726C100.333 41.726 96.6883 45.338 96.6883 49.916C96.6883 54.494 100.333 58.148 104.9 58.148Z" fill="#030328"/>
<path d="M185.255 44.246C185.004 34.292 178.007 29 169.377 29C164.642 29 160.369 30.596 157.478 33.662C154.546 30.596 150.314 29 145.58 29C136.95 29 129.911 34.292 129.702 44.246C129.702 44.288 129.702 44.288 129.702 44.33V67.052C129.702 69.152 131.378 70.832 133.472 70.832H137.033C137.369 70.832 137.662 70.538 137.662 70.202V44.33C137.829 39.416 141.307 36.812 145.58 36.812C149.853 36.812 153.331 39.416 153.498 44.33V67.052C153.498 69.152 155.174 70.832 157.269 70.832H160.83C161.165 70.832 161.458 70.538 161.458 70.202V44.33C161.626 39.416 165.103 36.812 169.377 36.812C173.65 36.812 177.127 39.416 177.295 44.33V67.052C177.295 69.152 178.971 70.832 181.065 70.832H184.626C184.962 70.832 185.255 70.538 185.255 70.202V44.33C185.255 44.288 185.255 44.288 185.255 44.246Z" fill="#030328"/>
<path d="M265.442 29.6721H259.41C257.734 29.6721 256.184 30.5121 255.22 31.8981L248.559 41.8101C247.888 42.8181 246.506 43.0701 245.5 42.3981C245.249 42.2301 245.081 42.0201 244.914 41.8101L238.211 31.8981C237.289 30.5121 235.697 29.6721 234.021 29.6721H227.988C227.737 29.6721 227.527 29.8821 227.527 30.1341C227.527 30.2181 227.569 30.3021 227.611 30.3861L239.551 48.1101C240.431 49.3701 240.431 51.0501 239.551 52.3521L227.611 70.0761C227.485 70.2861 227.527 70.5801 227.737 70.7481C227.82 70.7901 227.904 70.8321 227.988 70.8321H234.021C235.697 70.8321 237.247 69.9921 238.211 68.6061L244.872 58.6941C245.542 57.6861 246.925 57.4341 247.93 58.1061C248.182 58.2741 248.349 58.4841 248.517 58.6941L255.178 68.6061C256.1 69.9921 257.692 70.8321 259.368 70.8321H265.401C265.652 70.8321 265.861 70.6221 265.861 70.3701C265.861 70.2861 265.819 70.2021 265.778 70.1181L253.837 52.3941C253 51.1341 253 49.4541 253.837 48.1521L265.778 30.4281C265.903 30.2181 265.861 29.9241 265.652 29.7561C265.61 29.7141 265.526 29.6721 265.442 29.6721Z" fill="#030328"/>
<path d="M224.846 29.672H221.285C219.525 29.672 217.975 30.932 217.598 32.654C214.414 30.26 210.476 29 206.161 29C195.729 29 187.266 36.266 187.266 50C187.266 63.734 195.729 71 206.161 71C210.434 71 214.372 69.782 217.514 67.388C217.682 69.32 219.316 70.832 221.285 70.832H224.846C225.181 70.832 225.474 70.538 225.474 70.202V30.302C225.474 29.966 225.181 29.672 224.846 29.672ZM206.161 63.188C199.918 63.188 194.891 58.61 194.891 50C194.891 41.39 199.96 36.812 206.161 36.812C212.403 36.812 217.43 41.39 217.43 50C217.43 58.61 212.361 63.188 206.161 63.188Z" fill="#030328"/>
<path d="M270.931 30.4699H269.758V34.0399H268.878V30.4699H267.705V29.6299H270.931V30.4699Z" fill="#030328"/>
<path d="M276 34.0399H275.12V31.1839L273.905 33.2419H273.821L272.565 31.1839V34.0399H271.685V29.6299H272.565L273.821 31.7299L275.078 29.6299H275.958L276 34.0399Z" fill="#030328"/>
</g>
<defs>
<clipPath id="clip0_34_181">
<rect width="252" height="42" fill="white" transform="translate(24 29)"/>
</clipPath>
</defs>
</svg>
