<svg width="100" height="100" viewBox="0 0 100 100" fill="none" xmlns="http://www.w3.org/2000/svg">
<rect width="100" height="100" fill="white"/>
<path d="M26.615 53.8345C26.615 38.7666 38.8206 26.615 53.8885 26.615C68.0923 26.669 79.8659 37.5784 81 51.7282V50C81 32.8798 67.1202 19 50 19C32.8798 19 19 32.9338 19 50.054C19 67.1742 32.8798 81 50 81H52.0523C37.7944 80.0279 26.669 68.1463 26.615 53.8345Z" fill="#F47521"/>
<path d="M68.5783 55.1846C63.0696 55.1846 58.6411 50.7561 58.587 45.3013C58.587 41.0888 61.1794 37.3623 65.1219 35.9041C62.0435 34.2839 58.6411 33.4198 55.1306 33.4738C43.1411 33.4738 33.4198 43.1951 33.4198 55.1846C33.4198 67.1742 43.1411 76.8954 55.1306 76.8954C67.1202 76.8954 76.8414 67.1742 76.8414 55.1846C76.8954 53.7804 76.7874 52.4303 76.5174 51.0261C74.8431 53.7804 71.7647 55.3466 68.5783 55.1846Z" fill="#F47521"/>
</svg>
