<svg width="100" height="100" viewBox="0 0 100 100" fill="none" xmlns="http://www.w3.org/2000/svg">
<rect width="100" height="100" fill="white"/>
<path d="M49.5253 42.4911C60.2184 50.6386 78.4118 70.6279 72.8879 76.2452C66.6038 81.7106 58.4447 85 49.5253 85C40.606 85 32.3455 81.7106 26.1627 76.2452C20.5881 70.5773 38.8323 50.588 49.424 42.5417C49.424 42.4911 49.5253 42.4911 49.5253 42.4911Z" fill="#107C10"/>
<path d="M68.0229 19.2124C62.6003 15.923 56.671 14 49.5254 14C42.3798 14 36.3998 15.923 30.9772 19.2124C30.8759 19.2124 30.8759 19.3136 30.8759 19.3642C30.8759 19.4148 30.9772 19.4654 31.0279 19.4654C37.9201 17.9473 48.3598 23.8681 49.3734 24.526H49.5254C50.4883 23.9187 60.928 17.9979 67.8709 19.4654C67.9722 19.4654 68.0229 19.4654 68.0229 19.3642C68.0229 19.263 68.1242 19.2124 68.0229 19.2124Z" fill="#107C10"/>
<path d="M24.6424 24.1718C24.541 24.1718 24.541 24.273 24.4904 24.273C18.0036 30.7 14 39.6572 14 49.4747C14 57.5211 16.7366 65.0107 21.247 70.9822C21.247 71.0834 21.3483 71.0834 21.399 71.0834C21.5004 71.0834 21.5004 70.9822 21.399 70.9316C18.7131 62.4298 32.5989 42.1875 39.7445 33.7363L39.8458 33.6351C39.8458 33.5339 39.8458 33.5339 39.7445 33.5339C28.8994 22.7549 25.2505 23.9188 24.6424 24.1718Z" fill="#107C10"/>
<path d="M59.2555 33.4327L59.1542 33.5339C59.1542 33.5339 59.1542 33.6351 59.2555 33.6351C66.4518 42.1369 80.2363 62.3792 77.601 70.7798V70.9316C77.7024 70.9316 77.753 70.9316 77.753 70.8304C82.2634 64.9095 85 57.3693 85 49.3229C85 39.5054 80.9964 30.5988 74.459 24.1212C74.3576 24.02 74.3576 24.02 74.3069 24.02C73.7495 23.9188 70.1513 22.7549 59.2555 33.4327Z" fill="#107C10"/>
</svg>
