<svg width="100" height="100" viewBox="0 0 100 100" fill="none" xmlns="http://www.w3.org/2000/svg">
<rect width="100" height="100" fill="white"/>
<path d="M71.9258 45.823C59.9912 38.7354 40.3052 38.0837 28.9122 41.5415C27.0826 42.0968 25.1478 41.0636 24.5936 39.2345C24.039 37.4037 25.0708 35.4703 26.9018 34.9141C39.9802 30.9443 61.7212 31.711 75.4605 39.8668C77.1061 40.8439 77.6459 42.9691 76.6706 44.612C75.6944 46.2575 73.5674 46.7999 71.9258 45.823ZM71.5349 56.3207C70.6976 57.6794 68.9211 58.1056 67.5643 57.2713C57.6143 51.1552 42.4423 49.3834 30.6708 52.9566C29.1443 53.4179 27.532 52.5572 27.0683 51.0336C26.6083 49.5071 27.4694 47.8977 28.9932 47.4334C42.4404 43.3529 59.1573 45.3294 70.5853 52.3522C71.9421 53.1879 72.3692 54.9652 71.5349 56.3207ZM67.0045 66.4024C66.3392 67.4936 64.9186 67.8354 63.8314 67.1703C55.137 61.8565 44.1937 60.6566 31.3058 63.6002C30.0639 63.885 28.8262 63.1067 28.5429 61.8649C28.2585 60.6234 29.0338 59.3855 30.2784 59.1021C44.3819 55.8779 56.48 57.2656 66.2388 63.2288C67.3268 63.8934 67.6695 65.3148 67.0045 66.4024ZM50.0246 13C29.5768 13 13 29.5764 13 50.024C13 70.4739 29.5768 87.049 50.0246 87.049C70.473 87.049 87.049 70.4739 87.049 50.024C87.049 29.5764 70.473 13 50.0246 13Z" fill="#1ED760"/>
</svg>
