<svg width="100" height="100" viewBox="0 0 100 100" fill="none" xmlns="http://www.w3.org/2000/svg">
<g clip-path="url(#clip0_32_229)">
<rect width="100" height="100" fill="white"/>
<g clip-path="url(#clip1_32_229)">
<path d="M0 0H100V100H0V0Z" fill="#E60012"/>
<path d="M45.291 85.2204H47.6543V74.6384H45.291V85.2204ZM33.0159 68.007L35.8025 71.746H36.896V66.1375H35.7672V69.8412L33.0159 66.1728H31.8871V71.7813H33.0159V68.007ZM45.6438 66.1375H40.8818V67.3368H42.6808V71.746H43.8801V67.3368H45.6438V66.1375ZM38.3422 82.2927L36.0847 74.6031H34.2152L31.993 82.2574L29.9471 74.6031H27.6543L30.6526 85.1851H33.1923L35.1676 78.201L37.1429 85.1851H39.6826L42.6808 74.6031H40.388L38.3422 82.2927ZM54.2505 59.2945H61.164C67.5132 59.2945 72.6632 54.1446 72.6632 47.7954V25.9259C72.6632 19.5767 67.5132 14.4268 61.164 14.4268H54.2152C54.0388 14.4268 53.933 14.5679 53.933 14.7089V58.977C53.933 59.1534 54.0741 59.2945 54.2505 59.2945ZM62.7866 34.5678C65.291 34.5678 67.3369 36.6137 67.3369 39.1181C67.3369 41.6225 65.291 43.6684 62.7866 43.6684C60.2822 43.6684 58.2363 41.6225 58.2363 39.1181C58.2716 36.6137 60.2822 34.5678 62.7866 34.5678ZM27.6543 66.1375H26.4198V71.746H27.6543V66.1375ZM18.2716 68.007L21.0582 71.746H22.1517V66.1375H21.0229V69.8412L18.2716 66.1728H17.1429V71.7813H18.2716V68.007ZM21.5873 78.8007H21.5168C20.2117 78.589 19.1182 78.3774 19.0124 77.6366C19.0124 77.5308 19.0124 77.2839 19.1887 77.037C19.5415 76.6137 20.3527 76.4373 21.552 76.4373C22.9277 76.4373 24.3034 76.9664 24.7972 77.1781L25.5379 75.3439C25.0088 75.1322 23.3157 74.5326 21.4462 74.5326C19.1535 74.5326 16.7196 75.6613 16.7196 77.7072C16.7196 79.365 17.8836 80.2469 20.9171 80.776C23.0688 81.1287 24.2328 81.3403 24.1975 82.2574C24.1623 82.7513 23.7743 83.5978 21.3757 83.5978C19.4356 83.5978 18.06 82.8924 17.6014 82.6102L16.6138 84.4091C17.1429 84.6913 18.9418 85.5379 21.2346 85.5379C24.5856 85.5379 26.3845 84.3738 26.3845 82.1516C26.4198 80.5643 25.6438 79.5061 21.5873 78.8007ZM34.7796 27.9012C34.7796 30.2292 36.6843 32.134 39.0124 32.134C41.3404 32.134 43.2452 30.2292 43.2452 27.9012C43.2452 25.5731 41.3404 23.6684 39.0124 23.6684C36.649 23.6684 34.7796 25.5379 34.7796 27.9012ZM54.1094 70.7231H50.8995V69.4179H53.8624V68.395H50.8995V67.1957H54.1094V66.1728H49.7355V71.7813H54.1094V70.7231ZM80.3528 65.9611C78.6949 65.9611 77.3545 67.3015 77.3545 68.9594C77.3545 70.6172 78.6949 71.9576 80.3528 71.9576C82.0106 71.9576 83.351 70.6172 83.351 68.9594C83.3157 67.3015 81.9753 65.9611 80.3528 65.9611ZM80.3528 70.6878C79.4004 70.6878 78.6243 69.9118 78.6243 68.9594C78.6243 68.007 79.4004 67.231 80.3528 67.231C81.3051 67.231 82.0811 68.007 82.0811 68.9594C82.0811 69.9118 81.3051 70.6878 80.3528 70.6878ZM80.7055 78.8007H75.7672V74.6384H73.5803V85.2204H75.7672V80.9876H80.7055V85.2204H82.8924V74.6384H80.7055V78.8007ZM83.7743 84.1269H84.2328V85.2204H84.4797V84.1269H84.903V83.88H83.7743V84.1269ZM86.2081 83.8447L85.8554 84.8324L85.5027 83.8447H85.1147V85.1851H85.3616V84.1622L85.7143 85.1851H85.9612L86.314 84.1622V85.1851H86.5609V83.8447H86.2081ZM66.5609 76.649C67.7602 76.649 68.8536 77.2839 69.4533 78.3068L71.1817 76.8253C70.1235 75.2733 68.3951 74.3209 66.4903 74.3209C63.3863 74.3209 60.8466 76.8606 60.8466 79.9647C60.8466 83.0687 63.3863 85.6084 66.4903 85.6084C68.3951 85.6084 70.1235 84.6913 71.1817 83.104L69.4533 81.6225C68.8536 82.6102 67.7602 83.2804 66.5609 83.2804C64.7266 83.2804 63.2099 81.7989 63.2099 79.9999C63.2099 78.201 64.6914 76.649 66.5609 76.649ZM50.2293 76.8606H53.6155V85.1851H55.9083V76.8606H59.224V74.6031H50.2646V76.8606H50.2293ZM63.7743 71.746V66.1375H62.6455V69.8412L59.8942 66.1728H58.7654V71.7813H59.8942V68.0423L62.6808 71.7813H63.7743V71.746ZM49.1005 14.4268H39.2945C32.9453 14.4268 27.7954 19.5767 27.7954 25.9259V47.7954C27.7954 54.1446 32.9453 59.2945 39.2945 59.2945H49.1005C49.2769 59.2945 49.418 59.1534 49.418 58.977V14.7442C49.418 14.5679 49.2769 14.4268 49.1005 14.4268ZM45.8201 55.6966H39.2945C37.1781 55.6966 35.2028 54.8853 33.7214 53.3686C32.2399 51.8871 31.3933 49.9118 31.3933 47.7954V25.9259C31.3933 23.8095 32.2046 21.8342 33.7214 20.3527C35.2028 18.8712 37.1781 18.0246 39.2945 18.0246H45.8201V55.6966ZM70.8289 66.1375H68.5009V71.746H70.8289C72.4162 71.746 73.7214 70.4761 73.7214 68.9594C73.7214 67.4074 72.4162 66.1375 70.8289 66.1375ZM70.8995 70.582H69.6649V67.3368H70.8995C71.7813 67.3368 72.5221 68.0776 72.5221 68.9594C72.5221 69.8412 71.7813 70.582 70.8995 70.582Z" fill="white"/>
</g>
</g>
<defs>
<clipPath id="clip0_32_229">
<rect width="100" height="100" fill="white"/>
</clipPath>
<clipPath id="clip1_32_229">
<rect width="100" height="100" fill="white"/>
</clipPath>
</defs>
</svg>
