<svg width="100" height="100" viewBox="0 0 100 100" fill="none" xmlns="http://www.w3.org/2000/svg">
<rect width="100" height="100" fill="white"/>
<g clip-path="url(#clip0_27_163)">
<path d="M85.4536 32.12C84.6026 28.9236 82.0954 26.4067 78.9113 25.5525C73.1406 24 50 24 50 24C50 24 26.8596 24 21.0887 25.5525C17.9049 26.4067 15.3972 28.9236 14.5463 32.12C13 37.9131 13 50 13 50C13 50 13 62.0868 14.5463 67.8804C15.3972 71.0764 17.9049 73.5933 21.0887 74.4479C26.8596 76 50 76 50 76C50 76 73.1406 76 78.9113 74.4479C82.0954 73.5933 84.6026 71.0764 85.4536 67.8804C87 62.0868 87 50 87 50C87 50 87 37.9131 85.4536 32.12Z" fill="#ED1D24"/>
<path d="M42.4318 60.974L61.7727 50.0005L42.4318 39.026V60.974Z" fill="white"/>
</g>
<defs>
<clipPath id="clip0_27_163">
<rect width="74" height="52" fill="white" transform="translate(13 24)"/>
</clipPath>
</defs>
</svg>
