<svg width="100" height="100" viewBox="0 0 100 100" fill="none" xmlns="http://www.w3.org/2000/svg">
<rect width="100" height="100" fill="#00439C"/>
<mask id="mask0_32_275" style="mask-type:luminance" maskUnits="userSpaceOnUse" x="16" y="24" width="67" height="52">
<path d="M83 76V24L16 24V76H83Z" fill="white"/>
</mask>
<g mask="url(#mask0_32_275)">
<path fill-rule="evenodd" clip-rule="evenodd" d="M21.0289 68.2421C15.7452 66.7432 14.8642 63.6266 17.272 61.8308C19.4991 60.1678 23.2875 58.9219 23.2875 58.9219L38.9321 53.3272V59.7039L27.6743 63.7574C25.6828 64.4769 25.3786 65.4918 26.9964 66.0237C28.6133 66.556 31.5388 66.4041 33.5323 65.685L38.9321 63.7141V69.4191C38.5904 69.4825 38.2097 69.5438 37.8555 69.6017C32.4537 70.4913 26.6998 70.1205 21.0289 68.2421ZM54.0348 68.9058L71.5888 62.6167C73.5823 61.8972 73.8865 60.8828 72.2687 60.3504C70.6508 59.8181 67.7243 59.9695 65.7318 60.6896L54.0348 64.8337V58.2391L54.7107 58.0087C54.7107 58.0087 58.0899 56.8061 62.8423 56.2783C67.5948 55.7515 73.4153 56.3492 77.9826 58.0897C83.1327 59.7265 83.712 62.1377 82.4029 63.7992C81.0942 65.4596 77.8875 66.6431 77.8875 66.6431L54.0348 75.2608V68.9058ZM56.0874 28.1441C65.3301 31.3337 68.4622 35.3062 68.4622 44.2546C68.4622 52.9755 63.1085 56.2818 56.305 52.9795V36.7272C56.305 34.8217 55.9578 33.0661 54.1769 32.567C52.8122 32.1267 51.9658 33.4022 51.9658 35.3077V76L41.0522 72.5161V24C45.6935 24.8655 52.453 26.9123 56.0874 28.1441ZM80.3913 72.2992C80.3913 72.4366 80.3553 72.5322 80.2833 72.5815C80.2042 72.6353 80.0947 72.6625 79.9566 72.6625H79.2678V71.9575H79.9976C80.0992 71.9575 80.1792 71.9721 80.2368 72.0008C80.3408 72.0531 80.3913 72.1508 80.3913 72.2992ZM80.8851 73.9083C80.8516 73.8937 80.8281 73.8575 80.812 73.7981C80.801 73.7584 80.794 73.693 80.792 73.6079L80.7795 73.2864C80.7745 73.1345 80.7455 73.0258 80.6905 72.9553C80.654 72.9065 80.6019 72.8688 80.5424 72.8326C80.6179 72.7817 80.6825 72.7224 80.73 72.6499C80.794 72.5488 80.8276 72.422 80.8276 72.2685C80.8276 71.9721 80.704 71.7658 80.4604 71.6536C80.3358 71.5978 80.1777 71.5686 79.9906 71.5686H78.8921H78.8365V71.6249V74.013V74.0673H78.8921H79.2132H79.2678V74.013V73.0439H79.9456C80.0677 73.0439 80.1577 73.0565 80.2107 73.0821C80.2998 73.1254 80.3463 73.214 80.3518 73.3478L80.3718 73.7473C80.3763 73.8429 80.3823 73.9083 80.3898 73.9446C80.3968 73.9823 80.4068 74.013 80.4203 74.0386L80.4364 74.0673H80.4689H80.8626H80.9181V74.013V73.9586V73.9229L80.8851 73.9083ZM77.9296 72.8653C77.9296 72.3661 78.1232 71.8977 78.4733 71.5454C78.824 71.1927 79.2898 70.9975 79.7855 70.9975C80.2818 70.9975 80.7475 71.1927 81.0977 71.5454C81.4484 71.8977 81.6415 72.3661 81.6415 72.8653C81.6415 73.8937 80.8085 74.731 79.7855 74.731C79.2898 74.731 78.824 74.5373 78.4733 74.1851C78.1232 73.8323 77.9296 73.3639 77.9296 72.8653ZM79.7855 75.1089C80.3813 75.1089 80.9416 74.8754 81.3628 74.4507C81.7845 74.0276 82.0162 73.4635 82.0162 72.8653C82.0162 72.265 81.7845 71.7024 81.3628 71.2778C80.9416 70.8546 80.3813 70.6216 79.7855 70.6216C78.5564 70.6216 77.5549 71.6265 77.5549 72.8653C77.5549 73.4635 77.787 74.0276 78.2082 74.4507C78.6299 74.8754 79.1897 75.1089 79.7855 75.1089Z" fill="white"/>
</g>
</svg>
