<svg width="100" height="100" viewBox="0 0 100 100" fill="none" xmlns="http://www.w3.org/2000/svg">
<rect width="100" height="100" fill="white"/>
<g clip-path="url(#clip0_25_432)">
<path d="M79.9639 37.2941C74.6386 40.5882 71.3494 46.2353 71.3494 52.5098C71.3494 59.5686 75.5783 66 82 68.6667C80.747 72.7451 78.8675 76.5098 76.5181 79.9608C73.0723 84.8235 69.4699 89.8431 64.1446 89.8431C58.8193 89.8431 57.253 86.7059 50.988 86.7059C44.8795 86.7059 42.6867 90 37.6747 90C32.6627 90 29.2169 85.451 25.3012 79.8039C20.1325 71.9608 17.1566 62.8627 17 53.2941C17 37.7647 27.0241 29.451 37.0482 29.451C42.3735 29.451 46.759 32.902 50.0482 32.902C53.1807 32.902 58.1928 29.2941 64.1446 29.2941C70.4096 29.1373 76.3614 32.1176 79.9639 37.2941ZM61.3253 22.7059C63.988 19.5686 65.3976 15.6471 65.5542 11.5686C65.5542 11.098 65.5542 10.4706 65.3976 10C60.8554 10.4706 56.6265 12.6667 53.6506 16.1176C50.988 19.098 49.4217 22.8627 49.2651 26.9412C49.2651 27.4118 49.2651 27.8824 49.4217 28.3529C49.7349 28.3529 50.2048 28.5098 50.5181 28.5098C54.747 28.1961 58.6627 26 61.3253 22.7059Z" fill="black"/>
</g>
<defs>
<clipPath id="clip0_25_432">
<rect width="65" height="80" fill="white" transform="translate(17 10)"/>
</clipPath>
</defs>
</svg>
