<svg width="300" height="100" viewBox="0 0 300 100" fill="none" xmlns="http://www.w3.org/2000/svg">
<g clip-path="url(#clip0_32_343)">
<path d="M112.363 53.6784L110.837 58.0272H110.71C110.456 57.0466 109.989 55.5543 109.226 53.7636L101.046 33.0853H93.0358V66.0427H98.3338V45.7055C98.3338 44.4264 98.3338 42.9768 98.2914 41.1861C98.249 40.2908 98.1642 39.6086 98.1219 39.097H98.249C98.5033 40.376 98.8 41.314 99.0119 41.9109L108.845 65.9574H112.575L122.323 41.6977C122.535 41.1435 122.747 40.0349 122.959 39.097H123.086C122.959 41.5272 122.874 43.7016 122.832 45.0233V65.9148H128.469V33.0001H120.755L112.363 53.6784ZM133.809 42.2946H139.319V65.9148H133.809V42.2946ZM136.607 32.3179C135.674 32.3179 134.911 32.659 134.275 33.2559C133.64 33.8528 133.301 34.6202 133.301 35.5582C133.301 36.4535 133.64 37.221 134.275 37.8179C134.911 38.4148 135.674 38.7132 136.607 38.7132C137.539 38.7132 138.344 38.3721 138.938 37.8179C139.574 37.221 139.913 36.4535 139.913 35.5582C139.913 34.6628 139.574 33.8954 138.938 33.2559C138.387 32.659 137.581 32.3179 136.607 32.3179ZM158.858 42.0815C157.841 41.8683 156.781 41.7404 155.764 41.7404C153.264 41.7404 150.975 42.2946 149.068 43.4032C147.16 44.5117 145.634 46.0466 144.66 47.9652C143.642 49.9264 143.134 52.1861 143.134 54.7869C143.134 57.0466 143.642 59.0504 144.617 60.8838C145.592 62.6745 146.948 64.1241 148.771 65.1047C150.509 66.0853 152.543 66.597 154.832 66.597C157.46 66.597 159.706 66.0427 161.486 65.0194L161.528 64.9768V59.8605L161.317 60.0311C160.511 60.628 159.579 61.1396 158.646 61.438C157.672 61.7791 156.781 61.9497 156.019 61.9497C153.815 61.9497 152.077 61.3101 150.848 59.9032C149.576 58.5388 148.94 56.6628 148.94 54.3179C148.94 51.8877 149.576 49.969 150.89 48.5621C152.204 47.1551 153.942 46.4303 156.061 46.4303C157.841 46.4303 159.664 47.0272 161.317 48.221L161.528 48.3915V42.9768L161.486 42.9342C160.766 42.6357 159.96 42.2946 158.858 42.0815ZM177.041 41.9109C175.685 41.9109 174.413 42.3373 173.311 43.2326C172.379 44.0001 171.743 45.1086 171.192 46.4303H171.15V42.2946H165.64V65.9148H171.15V53.8489C171.15 51.8024 171.574 50.097 172.506 48.8605C173.438 47.5815 174.625 46.9419 176.066 46.9419C176.575 46.9419 177.083 47.0698 177.719 47.1551C178.313 47.3256 178.736 47.4962 179.033 47.7094L179.245 47.8799V42.3373L179.118 42.2946C178.736 42.0388 177.974 41.9109 177.041 41.9109ZM192.045 41.783C188.188 41.783 185.094 42.9342 182.932 45.1939C180.728 47.4535 179.669 50.5659 179.669 54.4884C179.669 58.1551 180.771 61.1396 182.89 63.314C185.009 65.4458 187.891 66.5543 191.494 66.5543C195.266 66.5543 198.276 65.4032 200.437 63.1008C202.641 60.7985 203.701 57.7287 203.701 53.9342C203.701 50.1822 202.683 47.1977 200.607 45.0233C198.615 42.8489 195.69 41.783 192.045 41.783ZM196.453 59.9458C195.436 61.2675 193.825 61.907 191.833 61.907C189.841 61.907 188.23 61.2675 187.086 59.8605C185.942 58.5388 185.391 56.6202 185.391 54.19C185.391 51.6745 185.984 49.7559 187.086 48.3915C188.23 47.0272 189.799 46.345 191.791 46.345C193.74 46.345 195.266 46.9846 196.368 48.3063C197.47 49.628 198.064 51.5466 198.064 54.0621C197.979 56.6202 197.513 58.6241 196.453 59.9458ZM215.992 52.1008C214.254 51.376 213.152 50.8218 212.644 50.3528C212.22 49.9264 212.008 49.3295 212.008 48.5621C212.008 47.9225 212.262 47.283 212.898 46.8566C213.534 46.4303 214.254 46.2171 215.314 46.2171C216.246 46.2171 217.221 46.3877 218.154 46.6435C219.086 46.8993 219.934 47.283 220.612 47.7946L220.824 47.9652V42.7636L220.697 42.721C220.061 42.4652 219.213 42.2094 218.196 41.9962C217.179 41.8256 216.246 41.7404 215.483 41.7404C212.856 41.7404 210.694 42.3799 208.999 43.7869C207.303 45.1086 206.498 46.8993 206.498 48.9884C206.498 50.097 206.668 51.0776 207.049 51.8877C207.43 52.6977 207.981 53.4652 208.744 54.1047C209.507 54.7016 210.609 55.3838 212.135 56.0233C213.407 56.5776 214.381 57.0039 214.975 57.345C215.568 57.6861 215.95 58.0698 216.246 58.3683C216.458 58.7094 216.585 59.1357 216.585 59.69C216.585 61.2675 215.399 62.0349 212.983 62.0349C212.05 62.0349 211.076 61.8644 209.931 61.4807C208.787 61.097 207.727 60.5427 206.837 59.9032L206.625 59.7326V65.1473L206.752 65.19C207.558 65.5737 208.532 65.8295 209.719 66.128C210.906 66.3411 211.966 66.5117 212.898 66.5117C215.738 66.5117 218.069 65.8721 219.722 64.4652C221.417 63.1008 222.307 61.3528 222.307 59.0931C222.307 57.5156 221.883 56.1086 220.951 55.0427C219.722 54.0194 218.196 52.9535 215.992 52.1008ZM236.845 41.783C232.988 41.783 229.894 42.9342 227.732 45.1939C225.571 47.4535 224.469 50.5659 224.469 54.4884C224.469 58.1551 225.571 61.1396 227.69 63.314C229.809 65.4458 232.691 66.5543 236.294 66.5543C240.066 66.5543 243.076 65.4032 245.237 63.1008C247.441 60.7985 248.501 57.7287 248.501 53.9342C248.501 50.1822 247.483 47.1977 245.407 45.0233C243.415 42.8489 240.49 41.783 236.845 41.783ZM241.211 59.9458C240.193 61.2675 238.583 61.907 236.591 61.907C234.556 61.907 232.988 61.2675 231.844 59.8605C230.699 58.5388 230.148 56.6202 230.148 54.19C230.148 51.6745 230.742 49.7559 231.844 48.3915C232.988 47.0272 234.556 46.345 236.548 46.345C238.456 46.345 240.024 46.9846 241.126 48.3063C242.228 49.628 242.821 51.5466 242.821 54.0621C242.821 56.6202 242.27 58.6241 241.211 59.9458ZM277.958 46.8566V42.2946H272.405V35.3024L272.236 35.345L266.98 36.9225L266.853 36.9652V42.2946H258.546V39.3101C258.546 37.9458 258.885 36.8799 259.478 36.1977C260.072 35.5156 260.962 35.1745 262.064 35.1745C262.827 35.1745 263.632 35.345 264.522 35.7287L264.734 35.8566V31.0388L264.607 30.9962C263.844 30.7404 262.826 30.5698 261.513 30.5698C259.86 30.5698 258.419 30.9535 257.105 31.5931C255.791 32.3179 254.816 33.2985 254.095 34.6202C253.375 35.8993 252.993 37.3489 252.993 39.0117V42.2946H249.136V46.814H252.993V65.9148H258.546V46.8566H266.853V59.0078C266.853 63.9962 269.184 66.5117 273.846 66.5117C274.609 66.5117 275.415 66.3838 276.178 66.2559C276.983 66.0853 277.576 65.8722 277.915 65.7016L277.958 65.659V61.097L277.746 61.2675C277.407 61.4807 277.11 61.6512 276.601 61.7791C276.178 61.907 275.796 61.9497 275.499 61.9497C274.397 61.9497 273.634 61.6939 273.083 61.0543C272.575 60.4574 272.321 59.4768 272.321 58.0272V46.8566H277.958Z" fill="#737373"/>
<path d="M22 22H47.9815V48.1357H22V22Z" fill="#F25022"/>
<path d="M50.6941 22H76.6756V48.1357H50.6941V22Z" fill="#7FBA00"/>
<path d="M22 50.8644H47.9815V77H22V50.8644Z" fill="#00A4EF"/>
<path d="M50.6941 50.8644H76.6756V77H50.6941V50.8644Z" fill="#FFB900"/>
</g>
<defs>
<clipPath id="clip0_32_343">
<rect width="256" height="55" fill="white" transform="translate(22 22)"/>
</clipPath>
</defs>
</svg>
