<svg width="300" height="100" viewBox="0 0 300 100" fill="none" xmlns="http://www.w3.org/2000/svg">
<rect width="300" height="100" fill="white"/>
<g clip-path="url(#clip0_16_157)">
<path d="M258.533 47.8534L272 84C268.053 83.4511 264.028 82.667 260.004 82.0398L252.419 62.0455L244.602 80.3932C240.81 79.7659 237.017 79.5307 233.147 79.0602L246.846 47.4614L234.463 15H245.995L252.961 33.1125L260.391 15H272L258.533 47.8534ZM225.408 15H214.959V77.6489C218.365 77.8841 221.925 78.0409 225.408 78.433V15ZM205.982 76.9432C196.462 76.3159 186.942 75.6886 177.268 75.5318V15H187.871V65.3386C193.985 65.4955 200.1 65.9659 205.982 66.2795V76.9432ZM165.891 39.542V50.2841H151.34V74.8261H140.814V15H170.612V25.742H151.34V39.4636H165.891V39.542ZM122.936 25.742V75.375C119.376 75.375 115.738 75.375 112.256 75.5318V25.742H101.265V15H134.004V25.742H122.936ZM89.8108 50.833C85.1671 50.833 79.5946 50.833 75.6474 51.0682V67.0636C81.9165 66.5932 88.1081 66.1227 94.4545 65.8875V76.2375L65.0442 78.5898V15H94.4545V25.742H75.6474V40.2477C79.7494 40.2477 86.0958 40.0125 89.8108 40.0125V50.833ZM30.8354 44.7955V82.4318C27.043 82.9023 23.6376 83.4511 20 84V15H30.1388L43.9926 54.2045V15H54.6732V79.5307C50.8808 80.158 47.0885 80.3932 43.0639 80.942L30.8354 44.7955Z" fill="#E50914"/>
</g>
<defs>
<clipPath id="clip0_16_157">
<rect width="252" height="69" fill="white" transform="translate(20 15)"/>
</clipPath>
</defs>
</svg>
