<svg viewBox="0 0 111 30" xmlns="http://www.w3.org/2000/svg">
  <path fill="#E50914" d="M105.062 14.28L111 30c-1.75-.25-3.499-.563-5.28-.845l-3.345-8.686-3.437 7.969c-1.687-.282-3.344-.376-5.031-.595l6.031-13.625L94.468 0h5.063l3.062 7.874L105.875 0h5.124l-5.937 14.28zM90.47 0h-4.594v27.25c1.5.094 3.062.156 4.594.343V0zm-8.563 26.937c-4.187-.281-8.375-.53-12.656-.625V0h4.687v21.875c2.688.062 5.375.28 7.969.405v4.657zM64.25 10.657v4.687h-6.406V26H53.22V0h13.125v4.687h-8.5v5.97h6.406zm-18.906-5.97V26.25c-1.563 0-3.156 0-4.688.062V4.687h-4.844V0h14.406v4.687h-4.874zM30.75 0v21.875c2.875.156 5.75.344 8.563.625v4.563c-4.406-.5-8.813-.844-13.25-1.031V0h4.687zM21.875 0v27.656c-1.563.031-3.156.187-4.688.343V0h4.688zM4.78 12.968v4.782c-1.312 0-2.656.03-3.969.062v11.656L-4 27.686V0h12.75v4.687H4.782v8.281h6.093v4.782c-1.718.032-4.062.094-6.093.094V12.968z"/>
</svg>
