<svg width="300" height="100" viewBox="0 0 300 100" fill="none" xmlns="http://www.w3.org/2000/svg">
<path d="M76.8242 55.7323L65.2486 37.0429H56.9232V63.8805H65.2486V45.248L76.8242 63.9375H85.0926V37.0429H76.7102L76.8242 55.7323ZM142.515 46.1027V43.4247H138.181V39.7779H130.084V43.4247H125.693V46.1027H130.084V63.9375H138.181V46.1027H142.515ZM89.6544 63.8235H97.6946V46.0457H89.6544V63.8235ZM89.6544 42.57H97.7517V37.0429H89.6544V42.57ZM230.786 44.7922C224.286 44.7922 218.982 49.2936 218.982 54.7637C218.982 60.2338 224.286 64.7352 230.786 64.7352C237.287 64.7352 242.59 60.2338 242.59 54.7637C242.59 49.2936 237.287 44.7922 230.786 44.7922ZM234.037 58.5813C234.037 61.4303 232.383 62.5699 230.786 62.5699C229.19 62.5699 227.479 61.4303 227.479 58.5813V51.06C227.479 48.211 229.133 47.0714 230.786 47.0714C232.383 47.0714 234.037 48.211 234.037 51.06V58.5813ZM208.433 46.9004C207.122 46.1597 205.753 45.4759 203.871 45.305C198.112 44.7922 193.607 49.9204 193.607 54.6497C193.607 60.8605 198.397 63.1398 199.081 63.4816C201.819 64.7352 205.297 64.7922 208.319 62.8548V63.8805H216.245V37.0999H208.319C208.433 37.0429 208.433 42.7979 208.433 46.9004ZM208.547 54.8776V58.0685C208.547 60.8036 206.666 61.5443 205.354 61.5443C204.042 61.5443 202.161 60.8036 202.161 58.0685V51.6868C202.161 48.9517 204.042 48.211 205.354 48.211C206.608 48.211 208.547 48.9517 208.547 51.6868V54.8776ZM116.569 45.248C113.889 45.305 111.722 46.5016 110.126 47.9261V46.0457H102.085V63.8805H110.126V52.1426C110.126 50.6041 111.779 48.8947 113.946 48.8947C116.113 48.8947 117.653 50.6611 117.653 52.1426V63.8805H125.693V54.1939C125.693 47.1284 119.591 45.0771 116.569 45.248ZM181.975 45.248C179.58 45.305 177.299 46.2737 175.531 47.9261V46.0457H167.491V63.8805H175.531V52.1426C175.531 50.6041 177.185 48.8947 179.352 48.8947C181.518 48.8947 183.058 50.6611 183.058 52.1426V63.8805H191.098V54.1939C191.098 47.1284 184.997 45.0771 181.975 45.248ZM165.153 54.9916C165.153 49.4645 159.793 44.8492 153.292 44.8492C146.734 44.8492 141.431 49.3506 141.431 54.8207C141.431 60.3477 146.734 64.7922 153.292 64.7922C158.709 64.7922 163.328 61.6583 164.697 57.4987H156.656V58.5813C156.656 61.8292 154.49 62.5699 153.349 62.5699C152.095 62.5699 149.928 61.8292 149.928 58.5813V54.8776L165.153 54.9916ZM150.555 48.7238C151.182 47.7551 152.209 47.1284 153.349 47.1284C154.432 47.1284 155.516 47.6412 156.143 48.7238C156.656 49.5785 156.656 50.6611 156.656 52.1996H149.928C149.985 50.6611 150.042 49.6355 150.555 48.7238ZM245.726 40.4047C245.726 39.55 245.099 39.0942 243.787 39.0942H241.963V43.6526H243.046V41.7722H243.616L244.472 43.6526H245.726L244.7 41.6013C245.384 41.4304 245.726 40.9745 245.726 40.4047ZM243.673 41.0315H243.103V39.721H243.616C244.244 39.721 244.643 39.9489 244.643 40.3477C244.586 40.9175 244.301 41.0315 243.673 41.0315ZM243.73 37.2708C241.507 37.2708 239.625 39.1512 239.625 41.3734C239.625 43.5956 241.507 45.4759 243.73 45.4759C245.954 45.4759 247.836 43.5956 247.836 41.3734C247.836 39.1512 246.011 37.2708 243.73 37.2708ZM243.73 44.7352C241.906 44.7352 240.423 43.2537 240.423 41.4304C240.423 39.607 241.963 38.1255 243.73 38.1255C245.555 38.1255 247.038 39.664 247.038 41.4304C247.038 43.1967 245.555 44.7352 243.73 44.7352ZM234.664 22.0002H64.1651C46.0889 21.9432 34 34.9346 34 50.5472C34 66.1027 46.0889 78.9802 64.2222 78.9802H234.778C252.911 78.9802 265 66.1027 265 50.5472C264.886 34.9916 252.74 22.0002 234.664 22.0002ZM234.607 72.0286H64.2222C49.8524 72.0856 41.0708 62.399 41.0708 50.5472C41.0708 38.6953 49.9094 29.1227 64.2222 29.0657H234.607C248.92 29.0657 257.758 38.6953 257.758 50.5472C257.758 62.399 248.977 72.0286 234.607 72.0286Z" fill="black"/>
</svg>
