<svg width="300" height="100" viewBox="0 0 300 100" fill="none" xmlns="http://www.w3.org/2000/svg">
<g clip-path="url(#clip0_32_327)">
<path fill-rule="evenodd" clip-rule="evenodd" d="M270.689 44.8146C268.746 44.8146 267.186 43.2447 267.186 41.3046C267.186 39.3773 268.746 37.7947 270.689 37.7947C272.633 37.7947 274.206 39.3773 274.206 41.3046C274.206 43.2447 272.633 44.8146 270.689 44.8146ZM270.689 38.4329C269.116 38.4329 267.851 39.7092 267.851 41.3046C267.851 42.9001 269.116 44.1765 270.689 44.1765C272.249 44.1765 273.541 42.9001 273.541 41.3046C273.541 39.7092 272.249 38.4329 270.689 38.4329ZM270.166 41.8662V43.3084H269.334V39.3008H270.92C271.7 39.3008 272.352 39.7092 272.352 40.5644C272.352 41.1642 272.031 41.5343 271.584 41.713L272.416 43.3084H271.508L270.778 41.8662H270.166ZM271.508 40.5898C271.508 40.1942 271.175 40.0921 270.855 40.0921H270.166V41.0877H270.868C271.175 41.0877 271.508 40.9599 271.508 40.5898Z" fill="black"/>
<path fill-rule="evenodd" clip-rule="evenodd" d="M128.859 64.1193L116.855 46.1133V64.1193H111.52V38.0106H117.688L129.025 55.0496V38.0106H134.361V64.1193H128.859ZM137.539 55.2497C137.539 49.9479 141.907 45.9132 147.309 45.9132C152.677 45.9132 156.979 49.8479 156.979 55.1496C156.979 60.5181 152.611 64.5194 147.242 64.5194C141.84 64.5194 137.539 60.6181 137.539 55.2497ZM142.874 55.183C142.874 57.8839 144.841 59.7512 147.275 59.7512C149.71 59.7512 151.644 57.8839 151.644 55.183C151.644 52.5154 149.676 50.6481 147.242 50.6481C144.808 50.6481 142.874 52.5154 142.874 55.183ZM169.732 46.3134V51.4151C169.032 51.2817 168.298 51.2817 168.065 51.2817C165.564 51.2817 163.83 53.0156 163.83 56.3167V64.1193H158.728V46.3134H163.663V48.9142H163.73C164.697 46.8802 166.498 46.1133 168.332 46.1133C168.732 46.1133 169.365 46.2133 169.732 46.3134ZM184.756 64.1193V61.8519H184.69C183.022 64.286 180.355 64.4527 179.154 64.4527C173.986 64.4527 170.685 59.9846 170.685 55.183C170.685 50.6815 174.119 45.9799 179.221 45.9799C180.255 45.9799 182.722 46.18 184.556 48.3474H184.623V36.9769H189.791V64.1193H184.756ZM184.756 55.183C184.756 52.5154 182.789 50.6815 180.355 50.6815C177.921 50.6815 175.953 52.5154 175.953 55.183C175.953 57.8839 177.921 59.7512 180.355 59.7512C182.789 59.7512 184.756 57.8839 184.756 55.183ZM200.846 64.1193L191.409 38.0106H197.245L204.014 57.8505L210.816 38.0106H216.551L207.082 64.1193H200.846ZM237.809 46.3801C237.809 52.1486 233.741 54.9162 228.273 54.9162H224.172V64.1193H218.77V38.0106H228.473C233.708 38.0106 237.809 40.8449 237.809 46.3801ZM232.374 46.5134C232.374 43.9793 230.24 43.1123 228.006 43.1123H224.172V49.8812H228.039C230.174 49.8812 232.374 48.9476 232.374 46.5134ZM257.867 64.1193L245.863 46.1133V64.1193H240.528V38.0106H246.697L258.034 55.0496V38.0106H263.369V64.1193H257.867Z" fill="black"/>
<path fill-rule="evenodd" clip-rule="evenodd" d="M31.6812 78.159C27.3239 72.1107 24.9858 64.8416 25.0001 57.3872C25.0001 37.8439 40.7141 22 60.0994 22C79.4848 22 95.1988 37.8439 95.1988 57.3872C95.2134 64.8418 92.8754 72.1109 88.5176 78.159L71.6594 50.5586L70.0325 53.3315L71.6822 61.0358L60.0994 41.0555L52.9339 53.2543L54.6011 61.0393L48.5289 50.5762L31.6812 78.159Z" fill="#3E5FFF"/>
</g>
<defs>
<clipPath id="clip0_32_327">
<rect width="249.206" height="56.159" fill="white" transform="translate(25 22)"/>
</clipPath>
</defs>
</svg>
