<svg width="300" height="100" viewBox="0 0 300 100" fill="none" xmlns="http://www.w3.org/2000/svg">
<g clip-path="url(#clip0_32_267)">
<path d="M88 37.0515V64.447H92.2489V39.6772H96.1817C96.1817 39.6772 99.0391 39.6772 100.017 40.9633C100.849 42.0559 101 44.0379 101 45.3762C101 46.8086 100.911 49.022 100.433 49.8323C99.7084 51.0705 98.5187 51.3186 97.4309 51.3186H94.8348V53.7501H98.5681C98.5681 53.7501 101.936 53.8916 103.385 52.4094C105.161 50.5922 105.613 48.1493 105.613 44.8788C105.613 41.9073 104.541 38.9094 102.352 37.8912C100.54 37.0521 97.2719 37.0521 97.2719 37.0521L88 37.0515ZM108.952 64.4476H113.2V37.0521H108.952V64.4476ZM135.803 43.4416L143.577 63.9478L139.114 74.9491H142.641L155.492 43.4416H151.554L145.956 58.7983L140.748 43.4416H135.803ZM158.691 64.2846V61.6955C158.691 61.6955 163.184 61.8729 164.12 61.8729C166.193 61.8729 167.229 61.4282 168.008 60.5867C168.468 60.0821 168.884 57.8471 168.884 57.0506C168.884 56.2571 168.732 54.5412 168.424 53.8382C168.105 53.1496 167.381 52.5065 166.296 52.4136C165.521 52.3465 164.325 52.1888 162.925 52.1241C160.964 52.0306 159.667 51.0004 159.042 50.2596C158.423 49.5182 157.593 48.4017 157.593 44.9855C157.593 41.5651 158.472 39.6478 159.353 38.7584C160.235 37.8642 161.524 37.4722 162.515 37.2954C163.654 37.0994 165.516 37.0875 165.516 37.0875L171.463 37.2619V39.851C171.463 39.851 167.127 39.6766 166.194 39.6766C164.12 39.6766 163.498 40.1237 162.721 40.9627C162.263 41.462 161.904 42.8441 161.904 43.6358C161.904 44.4311 161.997 46.0379 162.308 46.7331C162.616 47.4224 163.343 48.0672 164.431 48.1655C165.203 48.2255 166.402 48.3831 167.799 48.4472C169.77 48.5407 171.064 49.5686 171.682 50.3123C172.307 51.0555 173.137 52.6216 173.137 56.0348C173.137 59.4558 172.252 61.8992 171.375 62.791C170.492 63.6799 169.205 64.0772 168.215 64.2492C167.072 64.447 165.21 64.462 165.21 64.462L158.691 64.2846ZM181.873 39.676H177.626V59.7884C177.626 59.7884 177.728 61.6241 177.833 62.2696C177.937 62.9151 178.871 64.4476 181.305 64.4476L185.706 64.3613V61.7818C185.706 61.7818 184.514 61.8681 183.794 61.8681C183.065 61.8681 182.181 61.8201 182.032 60.5795C181.872 59.3413 181.872 57.8615 181.872 57.8615V46.0187H186.67V43.4416H181.872V39.6766M222.874 64.4476H227.121V43.4428H222.874V64.4476ZM222.874 40.8645H227.121V37.0509H222.874V40.8645ZM240.544 43.2624C243.434 43.2624 245.676 43.9127 246.88 44.8926C248.096 45.8755 249.59 47.948 249.59 53.9455C249.59 59.9436 248.096 62.0137 246.88 62.999C245.676 63.9789 243.434 64.634 240.544 64.634C237.646 64.634 235.414 63.9789 234.2 62.999C232.987 62.0137 231.5 59.9436 231.5 53.9455C231.5 47.948 232.987 45.8749 234.2 44.8926C235.414 43.9127 237.646 43.2624 240.544 43.2624ZM237.632 47.2899C237.048 48.0151 236.336 49.5374 236.336 53.9455C236.336 58.3518 237.048 59.8765 237.632 60.5981C238.214 61.3161 239.287 61.8009 240.677 61.8009C242.068 61.8009 243.137 61.3155 243.726 60.5987C244.308 59.8765 245.02 58.3512 245.02 53.9461C245.02 49.5374 244.308 48.0145 243.726 47.2905C243.137 46.5713 242.068 46.09 240.677 46.09C239.288 46.09 238.214 46.5707 237.632 47.2905M258.389 46.3915L262.555 46.2147C263.644 46.2147 264.928 46.5108 265.55 47.3049C266.129 48.0529 266.495 48.9447 266.495 50.3813V64.4236H270.748V50.0277C270.748 47.3049 269.915 45.722 268.666 44.7278C266.884 43.3055 263.693 43.4416 263.693 43.4416L254.176 43.6136V64.4236H258.389V46.3915ZM214.414 39.676H210.166V59.7884C210.166 59.7884 210.266 61.6241 210.368 62.2696C210.475 62.9151 211.4 64.4476 213.845 64.4476L218.245 64.3613V61.7818C218.245 61.7818 217.05 61.8681 216.329 61.8681C215.607 61.8681 214.721 61.8201 214.566 60.5795C214.414 59.3413 214.414 57.8615 214.414 57.8615V46.0187H219.2V43.4416H214.414L214.414 39.676ZM129.322 50.3813C129.322 48.9447 128.959 48.0529 128.374 47.3049C127.752 46.5108 126.475 46.2141 125.382 46.2141L119.779 46.3915V43.6136L126.522 43.4416C126.522 43.4416 129.713 43.3049 131.497 44.7278C132.742 45.7226 133.568 47.3049 133.568 50.0277V64.2229L125.427 64.3997C125.427 64.3997 121.741 64.4128 119.884 63.6565C118.074 62.9151 117.086 60.881 117.086 58.0575C117.086 55.3323 117.915 53.7495 119.16 52.7552C120.943 51.3306 124.133 51.4714 124.133 51.4714H126.733V53.891H125.275C124.183 53.891 123.06 54.0941 122.434 54.8876C121.853 55.6284 121.541 56.2721 121.541 57.7087C121.541 59.5948 121.904 60.4357 122.786 61.077C123.565 61.6481 124.959 61.7722 126.515 61.7722L129.322 61.6002V50.3813ZM200.957 50.3813C200.957 48.9447 200.602 48.0529 200.017 47.3049C199.388 46.5108 198.11 46.2141 197.025 46.2141L191.425 46.3915V43.6136L198.162 43.4416C198.162 43.4416 201.352 43.3049 203.134 44.7278C204.378 45.7226 205.209 47.3049 205.209 50.0277V64.2229L197.067 64.3997C197.067 64.3997 193.377 64.4128 191.524 63.6565C189.712 62.9151 188.722 60.881 188.722 58.0575C188.722 55.3323 189.558 53.7495 190.795 52.7552C192.577 51.3306 195.773 51.4714 195.773 51.4714H198.371V53.891H196.911C195.825 53.891 194.695 54.0941 194.078 54.8876C193.493 55.6284 193.18 56.2721 193.18 57.7087C193.18 59.5948 193.546 60.4357 194.424 61.077C195.201 61.6481 196.602 61.7722 198.158 61.7722L200.958 61.6002L200.957 50.3813ZM278.448 64.6196C278.993 64.6209 279.533 64.5138 280.037 64.3045C280.54 64.0953 280.998 63.7879 281.384 63.4001C281.769 63.0124 282.075 62.5518 282.283 62.0448C282.491 61.5378 282.598 60.9945 282.597 60.4459C282.599 59.8971 282.492 59.3535 282.284 58.8464C282.075 58.3393 281.769 57.8787 281.383 57.4911C280.998 57.1029 280.541 56.7953 280.037 56.586C279.533 56.3766 278.993 56.2698 278.448 56.2715C276.17 56.2715 274.301 58.1438 274.301 60.4459C274.301 61.5594 274.729 62.6094 275.52 63.4006C275.904 63.7875 276.361 64.0944 276.863 64.3036C277.366 64.5128 277.904 64.6201 278.448 64.6196ZM274.997 60.4459C274.997 59.5181 275.361 58.6455 276.009 57.9904C276.329 57.6669 276.709 57.4103 277.127 57.2351C277.546 57.0599 277.995 56.9697 278.448 56.9697C279.37 56.9697 280.239 57.3353 280.889 57.9904C281.21 58.3124 281.465 58.695 281.639 59.1164C281.812 59.5378 281.902 59.9896 281.901 60.4459C281.901 62.3607 280.355 63.922 278.448 63.922C277.995 63.9218 277.546 63.8317 277.128 63.6569C276.709 63.4821 276.329 63.2259 276.009 62.9031C275.688 62.5808 275.433 62.1977 275.26 61.7761C275.086 61.3544 274.997 60.9023 274.997 60.4459Z" fill="black"/>
<path d="M280.496 62.3847C280.434 62.3607 280.386 62.2888 280.36 62.1809C280.335 62.0655 280.321 61.9478 280.32 61.8297L280.301 61.2298C280.291 60.9481 280.232 60.7467 280.132 60.6125C280.068 60.5226 279.971 60.4506 279.859 60.3835C279.997 60.2924 280.12 60.1827 280.208 60.0443C280.325 59.8573 280.386 59.6212 280.386 59.3341C280.386 58.7845 280.156 58.3967 279.707 58.1935C279.469 58.0857 279.182 58.0377 278.83 58.0377H276.686V62.6855H277.484V60.7797H278.745C278.973 60.7797 279.144 60.8036 279.241 60.8474C279.405 60.9283 279.493 61.0931 279.503 61.3448L279.538 62.088C279.548 62.2696 279.557 62.3841 279.571 62.4512C279.593 62.5231 279.604 62.5801 279.631 62.628L279.664 62.6855H280.554V62.4129L280.495 62.3841L280.496 62.3847ZM279.571 59.3916C279.571 59.6517 279.505 59.8243 279.377 59.9196C279.23 60.0179 279.025 60.0725 278.769 60.0725H277.484V58.7587H278.847C279.03 58.7587 279.182 58.7845 279.291 58.8372C279.482 58.9331 279.571 59.1189 279.571 59.3916Z" fill="black"/>
</g>
<path d="M18.2709 60.9053C15.9218 62.4682 16.7048 65.3987 21.664 66.7662C26.7536 68.4594 32.3652 68.9153 37.7811 68.0036C38.1074 68.0036 38.3684 67.8733 38.5641 67.8733V62.5984L33.2787 64.2916C31.2559 64.8777 29.2331 65.0731 27.2104 64.6172C25.6443 64.1614 25.9706 63.2497 27.7976 62.4682L38.5641 58.7563V53.0255L23.6868 58.105C21.8597 58.7563 19.9674 59.668 18.2709 60.9053ZM54.2245 37.7219V52.6999C60.5539 55.7607 65.513 52.6999 65.513 44.69C65.513 36.4846 62.5767 32.7727 54.0287 29.8422C49.5264 28.2793 44.8935 26.9117 40.2607 26V70.6735L51.0924 73.9296V36.3544C51.0924 34.6612 51.0924 33.4239 52.3322 33.8797C54.0287 34.3356 54.2245 36.0288 54.2245 37.7219ZM74.322 57.3887C69.8196 55.8258 65.0563 55.2397 60.3581 55.6955C57.8786 55.8258 55.5295 56.477 53.3762 57.2585L52.9195 57.3887V63.445L62.9682 59.7331C64.991 59.147 67.0138 58.9516 69.0366 59.4075C70.6026 59.8633 70.2764 60.775 68.4493 61.5565L52.9847 67.2872V73.1482L74.322 65.2684C75.888 64.6823 77.2583 63.9009 78.4981 62.6636C79.6074 61.1006 79.1506 58.8865 74.322 57.3887Z" fill="#0070D1"/>
<defs>
<clipPath id="clip0_32_267">
<rect width="195" height="38" fill="white" transform="translate(88 37)"/>
</clipPath>
</defs>
</svg>
