<svg width="300" height="100" viewBox="0 0 300 100" fill="none" xmlns="http://www.w3.org/2000/svg">
<rect width="300" height="100" fill="white"/>
<path d="M73.8445 54.4398C75.0424 54.4398 75.9312 54.0341 76.4916 53.2226C77.0519 52.4111 77.3417 51.1359 77.3417 49.3776C77.3417 47.6 77.0712 46.3055 76.5109 45.494C75.9506 44.6825 75.0618 44.2767 73.8445 44.2767C72.7239 44.2767 71.6805 44.5666 70.6951 45.1462V53.5897C71.6419 54.15 72.6852 54.4398 73.8445 54.4398ZM66.8115 64.2165C66.541 64.2165 66.3285 64.1585 66.1932 64.0426C66.058 63.9267 66 63.7141 66 63.4243V42.0161C66 41.707 66.058 41.5138 66.1932 41.3978C66.3285 41.2819 66.5217 41.2239 66.8115 41.2239H69.1301C69.6131 41.2239 69.9223 41.4558 70.0382 41.9195L70.27 42.7503C70.9077 42.1321 71.6805 41.6297 72.5886 41.2819C73.4967 40.9148 74.4242 40.7409 75.3709 40.7409C77.4383 40.7409 79.0806 41.4944 80.2979 43.0208C81.5151 44.5472 82.1141 46.5953 82.1141 49.1844C82.1141 50.962 81.805 52.5077 81.206 53.8409C80.607 55.174 79.7955 56.1788 78.7715 56.913C77.7474 57.6279 76.5688 57.995 75.2357 57.995C74.3662 57.995 73.516 57.8597 72.7432 57.5699C71.951 57.2994 71.2748 56.913 70.7144 56.4106V63.4436C70.7144 63.7334 70.6565 63.946 70.5405 64.0619C70.4246 64.1778 70.2121 64.2358 69.9223 64.2358L66.8115 64.2165Z" fill="#00061C"/>
<path d="M85.9592 57.6086C85.6887 57.6086 85.4761 57.5506 85.3602 57.4154C85.225 57.2801 85.167 57.0869 85.167 56.8164V42.0355C85.167 41.7263 85.225 41.5331 85.3602 41.4172C85.4955 41.3013 85.6887 41.2433 85.9592 41.2433H88.2584C88.7608 41.2433 89.0506 41.4751 89.1472 41.9389L89.5723 43.6778C90.4224 42.731 91.2339 42.0741 91.9875 41.6684C92.741 41.2626 93.5525 41.0694 94.4027 41.0694H94.847C95.1562 41.0694 95.3687 41.1274 95.4847 41.2433C95.6199 41.3592 95.6779 41.5718 95.6779 41.8616V44.5473C95.6779 44.8178 95.6199 45.0303 95.504 45.1462C95.388 45.2815 95.1755 45.3394 94.8857 45.3394C94.7311 45.3394 94.5379 45.3201 94.306 45.3008C94.0742 45.2815 93.765 45.2622 93.4173 45.2622C92.9149 45.2622 92.3353 45.3394 91.6204 45.4747C90.9248 45.6099 90.3065 45.7838 89.8235 45.9964V56.7971C89.8235 57.0676 89.7655 57.2801 89.6496 57.396C89.5336 57.512 89.3211 57.5892 89.0313 57.5892L85.9592 57.6086Z" fill="#00061C"/>
<path d="M98.576 57.6085C98.3055 57.6085 98.093 57.5506 97.977 57.4153C97.8418 57.2801 97.7838 57.0869 97.7838 56.8164V42.0354C97.7838 41.7263 97.8418 41.5331 97.977 41.4172C98.1123 41.3012 98.3055 41.2433 98.576 41.2433H101.648C101.957 41.2433 102.15 41.3012 102.266 41.4172C102.382 41.5331 102.44 41.7456 102.44 42.0354V56.8164C102.44 57.0869 102.382 57.2994 102.266 57.4153C102.15 57.5506 101.938 57.6085 101.648 57.6085H98.576ZM100.122 38.6928C99.3102 38.6928 98.6533 38.461 98.1703 38.0166C97.6679 37.5722 97.436 36.9539 97.436 36.181C97.436 35.4082 97.6872 34.8092 98.1703 34.3455C98.6533 33.8818 99.3102 33.6693 100.122 33.6693C100.933 33.6693 101.59 33.9011 102.073 34.3455C102.576 34.7899 102.807 35.4082 102.807 36.181C102.807 36.9539 102.556 37.5529 102.073 38.0166C101.59 38.461 100.933 38.6928 100.122 38.6928Z" fill="#00061C"/>
<path d="M107.174 57.6085C106.904 57.6085 106.691 57.5505 106.575 57.4153C106.44 57.28 106.382 57.0868 106.382 56.8163V42.0354C106.382 41.7263 106.44 41.5331 106.575 41.4171C106.71 41.3012 106.904 41.2432 107.174 41.2432H109.473C109.956 41.2432 110.265 41.4751 110.362 41.9388L110.613 42.8083C111.753 42.0547 112.758 41.5331 113.685 41.2239C114.593 40.9148 115.521 40.7602 116.487 40.7602C118.419 40.7602 119.772 41.4364 120.564 42.8083C121.646 42.0741 122.689 41.5524 123.636 41.2432C124.583 40.9341 125.587 40.7602 126.611 40.7602C128.099 40.7602 129.278 41.1853 130.089 42.0161C130.92 42.8469 131.326 44.0255 131.326 45.5133V56.797C131.326 57.0675 131.268 57.28 131.152 57.396C131.036 57.5312 130.823 57.5892 130.534 57.5892H127.462C127.191 57.5892 126.979 57.5312 126.863 57.396C126.727 57.2607 126.669 57.0675 126.669 56.797V46.4987C126.669 45.0496 126.012 44.3153 124.718 44.3153C123.559 44.3153 122.399 44.5858 121.221 45.1462V56.797C121.221 57.0675 121.163 57.28 121.047 57.396C120.931 57.5312 120.718 57.5892 120.429 57.5892H117.356C117.086 57.5892 116.873 57.5312 116.757 57.396C116.622 57.2607 116.564 57.0675 116.564 56.797V46.4987C116.564 45.0496 115.907 44.3153 114.613 44.3153C113.415 44.3153 112.236 44.6052 111.077 45.1848V56.797C111.077 57.0675 111.019 57.28 110.903 57.396C110.787 57.5312 110.575 57.5892 110.285 57.5892L107.174 57.6085Z" fill="#00061C"/>
<path d="M144.31 46.093C144.31 44.5279 143.209 44.0835 141.856 44.0835C140.967 44.0835 140.098 44.412 139.499 45.0496C138.919 45.6872 138.571 46.634 138.417 47.8512C138.417 47.8512 140.813 48.2956 142.552 48.0058C143.46 47.8705 144.31 47.3488 144.31 46.093ZM142.358 58.1302C139.75 58.1302 137.76 57.5119 136.156 55.8889C135.113 54.8262 134.127 52.8361 134.127 49.4549C134.127 46.7112 134.997 44.6245 136.407 43.0981C137.818 41.5717 139.982 40.8762 142.011 40.8762C144.561 40.8762 146.068 41.4558 147.227 42.6151C147.421 42.8083 148.58 44.0062 148.58 45.9384C148.58 46.5953 148.599 47.2909 148.155 48.257C147.846 48.9139 147.382 49.3196 147.266 49.4356C145.373 51.1745 141.663 51.0586 140.407 50.9813L138.378 50.6721C138.513 52.0826 138.9 53.1839 139.769 53.8022C140.581 54.4012 141.47 54.633 143.286 54.633C144.194 54.633 145.411 54.4591 146.976 54.0341C147.053 54.0148 147.227 53.9761 147.285 53.9568C147.324 53.9568 147.479 53.9375 147.575 53.9761C147.749 54.0341 147.942 54.1886 147.942 54.6717V56.1401C147.942 56.4879 147.904 56.7198 147.807 56.855C147.71 56.9903 147.517 57.1255 147.247 57.2414C145.566 57.8404 144.059 58.1302 142.358 58.1302Z" fill="#00061C"/>
<path d="M211.297 46.093C211.297 44.5279 210.196 44.0835 208.843 44.0835C207.955 44.0835 207.085 44.412 206.486 45.0496C205.907 45.6872 205.559 46.634 205.404 47.8512C205.404 47.8512 207.8 48.2956 209.539 48.0058C210.447 47.8705 211.297 47.3488 211.297 46.093ZM209.346 58.1302C206.737 58.1302 204.747 57.5119 203.144 55.8889C202.1 54.8262 201.115 52.8361 201.115 49.4549C201.115 46.7112 201.984 44.6245 203.395 43.0981C204.805 41.5717 206.969 40.8762 208.998 40.8762C211.548 40.8762 213.056 41.4558 214.215 42.6151C214.408 42.8083 215.567 44.0062 215.567 45.9384C215.567 46.5953 215.587 47.2909 215.142 48.257C214.833 48.9139 214.369 49.3196 214.234 49.4356C212.341 51.1745 208.631 51.0586 207.375 50.9813L205.346 50.6721C205.482 52.0826 205.868 53.1839 206.737 53.8022C207.549 54.4012 208.438 54.633 210.254 54.633C211.162 54.633 212.379 54.4591 213.944 54.0341C214.022 54.0148 214.195 53.9761 214.253 53.9568C214.292 53.9568 214.447 53.9375 214.543 53.9761C214.717 54.0341 214.91 54.1886 214.91 54.6717V56.1401C214.91 56.4879 214.872 56.7198 214.775 56.855C214.679 56.9903 214.485 57.1255 214.215 57.2414C212.572 57.8404 211.046 58.1302 209.346 58.1302Z" fill="#00061C"/>
<path d="M162.665 57.6085C162.453 57.6085 162.279 57.5892 162.143 57.5312C162.008 57.4733 161.892 57.396 161.796 57.2801C161.699 57.1641 161.602 56.9902 161.525 56.7777L156.038 42.4992C155.98 42.3253 155.922 42.1707 155.883 42.0548C155.845 41.9388 155.825 41.8036 155.825 41.707C155.825 41.3785 156.038 41.2239 156.463 41.2239H159.67C160.018 41.2239 160.269 41.2819 160.424 41.4172C160.578 41.5524 160.714 41.7649 160.791 42.0548L164.095 53.4158L167.457 42.0548C167.534 41.7456 167.669 41.5331 167.824 41.4172C167.979 41.2819 168.23 41.2239 168.577 41.2239H171.688C172.113 41.2239 172.326 41.3785 172.326 41.707C172.326 41.8229 172.307 41.9388 172.268 42.0548C172.229 42.19 172.171 42.3253 172.113 42.4992L166.626 56.7777C166.549 56.9902 166.452 57.1641 166.356 57.2801C166.259 57.396 166.143 57.4733 166.027 57.5312C165.911 57.5892 165.718 57.6085 165.486 57.6085H162.665Z" fill="#00061C"/>
<path d="M175.128 57.6085C174.857 57.6085 174.644 57.5506 174.509 57.4153C174.374 57.2801 174.316 57.0869 174.316 56.8164V42.0354C174.316 41.7263 174.374 41.5331 174.509 41.4172C174.644 41.3012 174.838 41.2433 175.128 41.2433H178.2C178.489 41.2433 178.702 41.3012 178.818 41.4172C178.934 41.5331 178.992 41.7456 178.992 42.0354V56.8164C178.992 57.0869 178.934 57.2994 178.818 57.4153C178.702 57.5313 178.489 57.6085 178.2 57.6085H175.128ZM176.673 38.6928C175.862 38.6928 175.205 38.461 174.722 38.0166C174.239 37.5722 173.988 36.9539 173.988 36.181C173.988 35.4082 174.239 34.8092 174.722 34.3455C175.205 33.9011 175.862 33.6693 176.673 33.6693C177.485 33.6693 178.142 33.9011 178.625 34.3455C179.108 34.7899 179.359 35.4082 179.359 36.181C179.359 36.9539 179.108 37.5529 178.625 38.0166C178.122 38.461 177.485 38.6928 176.673 38.6928Z" fill="#00061C"/>
<path d="M190.353 54.4398C191.377 54.4398 192.362 54.1307 193.309 53.551V45.0882C192.382 44.5472 191.338 44.2961 190.14 44.2961C189 44.2961 188.17 44.7211 187.609 45.5713C187.049 46.4214 186.778 47.6966 186.778 49.3969C186.778 51.1165 187.068 52.3724 187.667 53.2226C188.266 54.0727 189.136 54.4398 190.353 54.4398ZM188.807 57.9563C187.416 57.9563 186.199 57.5892 185.175 56.8743C184.151 56.1594 183.358 55.1547 182.817 53.8988C182.276 52.6236 182.006 51.1552 182.006 49.4935C182.006 46.8465 182.644 44.7211 183.899 43.1368C185.155 41.5524 186.836 40.7409 188.904 40.7409C190.585 40.7409 192.053 41.224 193.29 42.19V34.6933C193.29 34.3842 193.348 34.1909 193.483 34.075C193.618 33.9591 193.811 33.9011 194.101 33.9011H197.173C197.463 33.9011 197.676 33.9591 197.792 34.075C197.908 34.1909 197.966 34.4035 197.966 34.6933V56.8164C197.966 57.0869 197.908 57.2994 197.792 57.4153C197.676 57.5506 197.463 57.6086 197.173 57.6086H194.604C194.352 57.6086 194.159 57.5506 194.005 57.454C193.869 57.3574 193.773 57.1642 193.695 56.913L193.502 56.1788C192.208 57.3574 190.623 57.9563 188.807 57.9563Z" fill="#00061C"/>
<path d="M225.885 54.4978C228.126 54.4978 229.247 52.7975 229.247 49.3969C229.247 46.0157 228.126 44.3347 225.885 44.3347C223.644 44.3347 222.523 46.0157 222.523 49.3969C222.523 52.7975 223.644 54.4978 225.885 54.4978ZM225.885 58.0916C223.335 58.0916 221.344 57.3187 219.915 55.7923C218.485 54.2659 217.77 52.1406 217.77 49.3969C217.77 46.6726 218.485 44.5666 219.915 43.0402C221.344 41.5138 223.335 40.7409 225.885 40.7409C228.435 40.7409 230.426 41.5138 231.855 43.0402C233.285 44.5666 234 46.6919 234 49.3969C234 52.1406 233.285 54.2659 231.855 55.7923C230.426 57.338 228.435 58.0916 225.885 58.0916Z" fill="#00061C"/>
<path fill-rule="evenodd" clip-rule="evenodd" d="M106.768 66.535V66.8055C106.807 67.0374 106.923 67.2692 107.135 67.4818C118.574 78.6109 133.683 85.2961 150.473 85.2961C162.453 85.2961 176.364 81.2386 185.948 73.6067C187.532 72.3314 186.18 70.4379 184.557 71.1915C173.794 76.1184 162.105 78.495 151.478 78.495C135.712 78.495 120.448 73.8385 108.121 66.0906C107.908 65.9554 107.696 65.8974 107.503 65.8974C107.116 65.8781 106.826 66.1679 106.768 66.535Z" fill="#00061C"/>
<path fill-rule="evenodd" clip-rule="evenodd" d="M178.064 67.7329C177.717 67.9841 177.543 68.2933 177.504 68.5444V68.699C177.543 68.9888 177.813 69.182 178.296 69.1241C181.388 68.7183 188.266 67.8489 189.503 69.5298C190.72 71.2108 188.131 78.1665 186.991 81.2773C186.643 82.2047 187.397 82.5911 188.189 81.8762C193.348 77.2584 194.661 67.5784 193.618 66.1679C193.116 65.4916 190.759 64.8734 187.822 64.8734C184.653 64.8734 180.885 65.5882 178.064 67.7329Z" fill="#00061C"/>
<path d="M116.912 22.5208C117.221 22.5208 117.569 22.4435 117.897 22.3082C118.245 22.173 118.554 21.9798 118.844 21.7286V20.0669C118.284 19.9703 117.781 19.9317 117.337 19.9317C116.216 19.9317 115.675 20.3761 115.675 21.2649C115.675 21.6706 115.791 21.9604 116.004 22.1923C116.216 22.4242 116.506 22.5208 116.912 22.5208ZM116.12 24.3949C115.173 24.3949 114.42 24.1244 113.84 23.5834C113.26 23.0424 112.99 22.3275 112.99 21.4388C112.99 20.8205 113.144 20.2602 113.473 19.7771C113.801 19.2941 114.246 18.927 114.825 18.6758C115.405 18.4246 116.062 18.3087 116.796 18.3087C117.414 18.3087 118.091 18.386 118.825 18.5599V17.5938C118.825 17.0141 118.709 16.6084 118.458 16.3959C118.207 16.1833 117.762 16.0674 117.105 16.0674C116.236 16.0674 115.25 16.222 114.168 16.5311C114.13 16.5504 114.091 16.5504 114.052 16.5698C114.014 16.5698 113.975 16.5698 113.956 16.5698C113.743 16.5698 113.627 16.4152 113.627 16.1254V15.2559C113.627 15.0434 113.647 14.9081 113.705 14.8308C113.763 14.7535 113.879 14.6763 114.052 14.599C114.497 14.4058 115.038 14.2512 115.675 14.1546C116.313 14.0386 116.951 14 117.608 14C118.921 14 119.888 14.2705 120.486 14.7922C121.085 15.3139 121.395 16.164 121.395 17.304V23.6221C121.395 23.796 121.356 23.9119 121.298 23.9892C121.221 24.0665 121.105 24.1051 120.931 24.1051H119.617C119.462 24.1051 119.347 24.0665 119.269 24.0085C119.192 23.9506 119.134 23.8346 119.095 23.6801L118.979 23.2357C118.593 23.5834 118.129 23.8733 117.608 24.0858C117.105 24.2983 116.603 24.3949 116.12 24.3949Z" fill="#00061C"/>
<path d="M125.336 24.0858C125.162 24.0858 125.046 24.0471 124.969 23.9698C124.892 23.8926 124.853 23.7766 124.853 23.6027V14.7728C124.853 14.5989 124.892 14.4637 124.969 14.4057C125.046 14.3284 125.162 14.3091 125.336 14.3091H126.708C126.998 14.3091 127.191 14.4444 127.249 14.7342L127.404 15.2559C128.08 14.8115 128.698 14.483 129.239 14.3091C129.78 14.1352 130.34 14.0386 130.92 14.0386C132.079 14.0386 132.891 14.4444 133.355 15.2559C134.012 14.8308 134.61 14.5023 135.19 14.3091C135.77 14.1159 136.349 14.0193 136.968 14.0193C137.856 14.0193 138.552 14.2705 139.054 14.7728C139.537 15.2752 139.789 15.9708 139.789 16.8595V23.6221C139.789 23.7959 139.75 23.9119 139.692 23.9892C139.615 24.0664 139.499 24.1051 139.325 24.1051H137.489C137.315 24.1051 137.2 24.0664 137.122 23.9892C137.045 23.9119 137.006 23.7959 137.006 23.6221V17.4585C137.006 16.589 136.62 16.1446 135.847 16.1446C135.151 16.1446 134.456 16.3185 133.76 16.647V23.6027C133.76 23.7766 133.722 23.8926 133.664 23.9698C133.586 24.0471 133.471 24.0858 133.297 24.0858H131.461C131.287 24.0858 131.171 24.0471 131.094 23.9698C131.017 23.8926 130.978 23.7766 130.978 23.6027V17.4585C130.978 16.589 130.592 16.1446 129.799 16.1446C129.085 16.1446 128.37 16.3185 127.693 16.6663V23.6027C127.693 23.7766 127.655 23.8926 127.597 23.9698C127.52 24.0471 127.404 24.0858 127.23 24.0858H125.336Z" fill="#00061C"/>
<path d="M146.513 22.5208C146.822 22.5208 147.17 22.4435 147.498 22.3082C147.846 22.173 148.155 21.9798 148.445 21.7286V20.0669C147.884 19.9703 147.382 19.9317 146.938 19.9317C145.817 19.9317 145.276 20.3761 145.276 21.2649C145.276 21.6706 145.392 21.9604 145.604 22.1923C145.798 22.4048 146.107 22.5208 146.513 22.5208ZM145.72 24.3949C144.774 24.3949 144.02 24.1244 143.44 23.5834C142.861 23.0424 142.59 22.3275 142.59 21.4388C142.59 20.8205 142.745 20.2602 143.073 19.7771C143.402 19.2941 143.846 18.927 144.426 18.6758C145.006 18.4246 145.662 18.3087 146.397 18.3087C147.015 18.3087 147.691 18.386 148.425 18.5599V17.5938C148.425 17.0141 148.309 16.6084 148.058 16.3959C147.807 16.1833 147.363 16.0674 146.706 16.0674C145.836 16.0674 144.851 16.222 143.769 16.5311C143.73 16.5504 143.692 16.5504 143.653 16.5698C143.614 16.5698 143.576 16.5698 143.556 16.5698C143.344 16.5698 143.228 16.4152 143.228 16.1254V15.2559C143.228 15.0434 143.247 14.9081 143.305 14.8308C143.363 14.7535 143.479 14.6763 143.653 14.599C144.097 14.4058 144.638 14.2512 145.276 14.1546C145.914 14.0386 146.551 14 147.208 14C148.522 14 149.488 14.2705 150.087 14.7922C150.686 15.3139 150.995 16.164 150.995 17.304V23.6221C150.995 23.796 150.957 23.9119 150.899 23.9892C150.821 24.0665 150.705 24.1051 150.531 24.1051H149.237C149.082 24.1051 148.966 24.0665 148.889 24.0085C148.812 23.9506 148.754 23.8346 148.715 23.6801L148.599 23.2357C148.213 23.5834 147.749 23.8733 147.227 24.0858C146.706 24.2983 146.203 24.3949 145.72 24.3949Z" fill="#00061C"/>
<path d="M154.203 24.0859C154.029 24.0859 153.913 24.0472 153.835 23.9699C153.758 23.8926 153.719 23.7767 153.719 23.6028V22.6174C153.719 22.4049 153.739 22.2503 153.797 22.1537C153.835 22.0378 153.913 21.9219 154.029 21.7866L158.762 16.3573H154.396C154.222 16.3573 154.106 16.3186 154.029 16.2413C153.951 16.1641 153.913 16.0481 153.913 15.8742V14.7729C153.913 14.599 153.951 14.4638 154.029 14.4058C154.106 14.3285 154.222 14.3092 154.396 14.3092H161.371C161.545 14.3092 161.68 14.3478 161.738 14.4058C161.815 14.4831 161.834 14.599 161.834 14.7729V15.797C161.834 16.0095 161.815 16.1641 161.777 16.2607C161.738 16.3573 161.641 16.4925 161.545 16.6278L156.753 22.0185H161.467C161.641 22.0185 161.777 22.0571 161.834 22.1344C161.912 22.2117 161.931 22.3276 161.931 22.5015V23.6221C161.931 23.796 161.892 23.912 161.834 23.9893C161.757 24.0665 161.641 24.1052 161.467 24.1052L154.203 24.0859Z" fill="#00061C"/>
<path d="M168.81 22.2309C170.162 22.2309 170.819 21.2069 170.819 19.1782C170.819 17.1494 170.143 16.1447 168.81 16.1447C167.476 16.1447 166.8 17.1494 166.8 19.1782C166.8 21.2069 167.457 22.2309 168.81 22.2309ZM168.81 24.3756C167.283 24.3756 166.105 23.9119 165.235 23.0038C164.385 22.0957 163.941 20.8205 163.941 19.1782C163.941 17.5551 164.366 16.2799 165.235 15.3718C166.085 14.4637 167.283 14 168.81 14C170.336 14 171.515 14.4637 172.384 15.3718C173.253 16.2799 173.679 17.5551 173.679 19.1782C173.679 20.8205 173.253 22.0957 172.384 23.0038C171.515 23.9312 170.336 24.3756 168.81 24.3756Z" fill="#00061C"/>
<path d="M177.079 24.0858C176.905 24.0858 176.789 24.0471 176.712 23.9698C176.635 23.8926 176.596 23.7766 176.596 23.6027V14.7728C176.596 14.5989 176.635 14.4637 176.712 14.4057C176.789 14.3284 176.905 14.3091 177.079 14.3091H178.47C178.76 14.3091 178.953 14.4444 179.011 14.7342L179.185 15.3718C180.344 14.483 181.562 14.0193 182.876 14.0193C183.784 14.0193 184.479 14.2705 184.982 14.7535C185.484 15.2365 185.716 15.9514 185.716 16.8595V23.6221C185.716 23.7959 185.677 23.9119 185.619 23.9892C185.542 24.0664 185.426 24.1051 185.252 24.1051H183.417C183.243 24.1051 183.127 24.0664 183.049 23.9892C182.972 23.9119 182.934 23.7959 182.934 23.6221V17.671C182.934 17.1494 182.818 16.7629 182.586 16.5118C182.354 16.2606 182.006 16.1446 181.523 16.1446C180.827 16.1446 180.132 16.3572 179.436 16.8016V23.6027C179.436 23.7766 179.398 23.8926 179.34 23.9698C179.262 24.0471 179.147 24.0858 178.973 24.0858H177.079Z" fill="#00061C"/>
</svg>
