<svg width="300" height="100" viewBox="0 0 300 100" fill="none" xmlns="http://www.w3.org/2000/svg">
<path d="M61.8013 42.495C72.8784 50.9296 91.7252 71.6232 86.0029 77.4384C79.4932 83.0964 71.041 86.5017 61.8013 86.5017C52.5616 86.5017 44.0044 83.0964 37.5996 77.4384C31.8248 71.5709 50.7242 50.8772 61.6963 42.5474C61.6963 42.495 61.8013 42.495 61.8013 42.495Z" fill="#107C10"/>
<path d="M80.9631 18.3961C75.3458 14.9908 69.2035 13 61.8013 13C54.399 13 48.2042 14.9908 42.5869 18.3961C42.4819 18.3961 42.4819 18.5008 42.4819 18.5532C42.4819 18.6056 42.5869 18.658 42.6394 18.658C49.7792 17.0863 60.5938 23.2158 61.6438 23.8969H61.8013C62.7987 23.2682 73.6134 17.1387 80.8056 18.658C80.9106 18.658 80.9631 18.658 80.9631 18.5532C80.9631 18.4484 81.0681 18.3961 80.9631 18.3961Z" fill="#107C10"/>
<path d="M36.0246 23.5302C35.9196 23.5302 35.9196 23.635 35.8671 23.635C29.1474 30.2884 25 39.5612 25 49.7247C25 58.0545 27.8349 65.8081 32.5072 71.99C32.5072 72.0948 32.6122 72.0948 32.6647 72.0948C32.7697 72.0948 32.7697 71.99 32.6647 71.9376C29.8823 63.1362 44.2668 42.1807 51.6691 33.4317L51.7741 33.3269C51.7741 33.2222 51.7741 33.2222 51.6691 33.2222C40.4345 22.0633 36.6546 23.2683 36.0246 23.5302Z" fill="#107C10"/>
<path d="M71.8809 33.1173L71.7759 33.2221C71.7759 33.2221 71.7759 33.3269 71.8809 33.3269C79.3356 42.1282 93.6151 63.0838 90.8852 71.7804V71.9375C90.9902 71.9375 91.0427 71.9375 91.0427 71.8327C95.7151 65.7032 98.55 57.8973 98.55 49.5674C98.55 39.404 94.4026 30.1835 87.6303 23.4778C87.5253 23.373 87.5253 23.373 87.4728 23.373C86.8954 23.2682 83.168 22.0633 71.8809 33.1173Z" fill="#107C10"/>
<path d="M151.888 72.3567H144.328L131.256 54.3873L118.132 72.4091H110.572L127.371 49.2008L111.937 27.8785H119.497L131.256 44.0143L143.016 27.8785H150.576L135.036 49.2008L151.888 72.3567ZM191.262 59.7309C191.262 63.6077 189.949 66.7511 187.377 68.9514C184.804 71.1517 181.077 72.3567 176.3 72.3567H155.51V52.5013H145.536L149.683 46.7909H155.51V27.8785H175.512C180.027 27.8785 183.492 28.9786 185.854 31.1266C188.269 33.2745 189.477 36.1035 189.477 39.5088C189.477 43.7523 187.534 47.0528 183.65 49.2008C186.169 50.1438 188.007 51.6107 189.267 53.3395C190.632 55.1207 191.262 57.321 191.262 59.7309ZM162.23 46.8956H174.987C177.56 46.8956 179.502 46.3194 180.815 45.1668C182.127 44.0666 182.757 42.2854 182.757 39.9803C182.757 38.0419 182.127 36.4703 180.71 35.3701C179.397 34.2699 177.455 33.6936 174.987 33.6936H162.23V46.8956ZM184.437 59.5214C184.437 57.2163 183.702 55.3827 182.285 54.2825C180.92 53.0775 178.767 52.5537 175.985 52.5537H162.178V66.4367H175.88C178.557 66.4367 180.71 65.8081 182.18 64.7079C183.702 63.5029 184.437 61.7741 184.437 59.5214ZM237.145 50.1438C237.145 53.549 236.673 56.7972 235.675 59.5738C234.678 62.3504 233.155 64.8127 231.213 66.9606C229.165 69.1086 226.856 70.7326 224.283 71.7804C221.711 72.8806 218.718 73.3521 215.411 73.3521C212.156 73.3521 209.111 72.7758 206.539 71.7804C203.966 70.6802 201.656 69.1086 199.609 66.9606C197.562 64.8127 196.092 62.3504 195.094 59.5738C194.097 56.7972 193.624 53.549 193.624 50.1438C193.624 46.7385 194.097 43.4904 195.094 40.7138C196.092 37.9371 197.614 35.3701 199.609 33.2221C201.551 31.0742 203.861 29.5549 206.539 28.4024C209.111 27.407 212.156 26.8307 215.411 26.8307C218.666 26.8307 221.606 27.407 224.283 28.4024C226.856 29.3977 229.27 31.0742 231.213 33.2221C233.155 35.3701 234.73 37.9371 235.675 40.7138C236.62 43.4904 237.145 46.6337 237.145 50.1438ZM200.606 50.1438C200.606 55.3827 201.971 59.5738 204.701 62.6123C207.379 65.6509 210.896 67.2226 215.411 67.2226C219.873 67.2226 223.443 65.6509 226.121 62.6123C228.798 59.5738 230.11 55.435 230.11 50.1438C230.11 44.8525 228.798 40.6614 226.121 37.5704C223.443 34.5319 219.821 32.9602 215.411 32.9602C211.001 32.9602 207.379 34.5319 204.701 37.5704C202.024 40.7138 200.606 44.8525 200.606 50.1438ZM258.617 49.2008L274.156 27.8785H266.597L254.837 44.0143L243.077 27.8785H235.518L251.057 49.2008L234.205 72.3567H241.818L254.837 54.3873L267.962 72.4091H275.521L258.617 49.2008Z" fill="#107C10"/>
</svg>
